<svg width="317" height="90" viewBox="0 0 317 90" fill="none" xmlns="http://www.w3.org/2000/svg">
<path fill-rule="evenodd" clip-rule="evenodd" d="M36.1197 39.2245C38.8523 38.0156 41.3896 35.0851 42.9403 32.5594C42.0511 31.8956 40.9776 31.2857 40.045 30.7406L39.3348 30.3305C38.4619 29.8232 37.5619 29.3213 36.7269 28.76C36.1251 28.3606 36.1576 27.4701 36.7811 27.1139C38.6788 25.9158 40.7065 24.8742 42.4577 23.471C44.724 21.5767 45.9873 19.4881 47.6192 17.0272C41.3192 15.5862 36.3854 15.9208 32.2703 21.5713C32.0642 21.852 31.8474 22.1164 31.56 22.3215C30.3184 23.1958 28.8166 21.9599 28.8708 21.9167C28.4045 21.6685 27.7539 21.0856 27.0057 20.8805C26.3443 20.697 25.6395 20.5028 24.8804 21.3771C24.8153 21.4634 24.8858 21.5444 24.6798 21.6577C24.4412 21.7926 23.9208 21.9653 23.7418 22.0625C23.731 22.219 24.4033 22.3539 24.9021 22.5482C25.7099 22.8666 25.9919 24.1888 26.1599 24.5558C26.4148 25.1171 26.5937 25.6352 26.3389 26.04L26.263 26.1479C25.6123 26.925 24.7828 27.3406 24.0617 27.999C23.2756 28.7114 22.2183 29.3752 21.6219 30.2495C20.0225 33.6064 20.0334 38.4636 20.3858 42.1173V42.1443L20.4292 42.6786C21.7629 41.842 23.0533 40.9354 24.2677 39.9369C25.5907 38.8468 26.7401 37.7134 27.7268 36.4451L27.7648 36.3966L27.7756 36.3804L27.8407 36.2994L27.8624 36.2724L27.9437 36.1645L27.9545 36.1537L27.9925 36.1051L28.0304 36.0566L28.0359 36.0512L28.1009 35.9594L28.1063 35.9486L28.1714 35.8623L28.1877 35.8407L28.2039 35.8137L28.2419 35.7651L28.269 35.7274L28.2798 35.7112L28.3503 35.6086L28.4208 35.5061L28.4317 35.4953L28.4913 35.4035L28.5076 35.382L28.5618 35.301L28.5835 35.2686L28.5943 35.2524L28.6268 35.1985L28.6594 35.1445L28.6919 35.0905L28.7244 35.0366L28.7299 35.0312L28.7353 34.9934L28.7678 34.9394L28.7786 34.9178L28.9196 34.6912L28.925 34.6804L28.9305 34.675L28.9955 34.567L29.0009 34.5616L29.1202 34.3512L29.1365 34.3188L29.1473 34.2972L29.2015 34.1946L29.207 34.1839L29.272 34.0705L29.3317 33.9626L29.3425 33.9464L29.4076 33.8223L29.4184 33.7953L29.4455 33.7413L29.4672 33.6981L29.4726 33.6873L29.5323 33.574L29.5919 33.4607L29.6028 33.4445L29.6678 33.315L29.6787 33.288L29.7925 33.0559C30.1991 32.1924 30.5732 31.3127 30.9907 30.46C31.1534 30.1254 31.1913 29.6397 31.6034 29.5263C31.6901 29.5048 31.7877 29.4994 31.8745 29.521L31.9883 29.5533H32.1022C32.1943 29.5479 32.2865 29.5695 32.3678 29.6073C32.7528 29.7962 32.6986 30.2819 32.7907 30.6381C33.0401 31.5556 33.2407 32.4946 33.4739 33.4121C33.8155 34.7451 34.2817 35.9594 34.8727 37.1144L34.8673 37.1575C35.2414 37.8645 35.6588 38.5499 36.1197 39.2245ZM20.7002 17.5399C22.7876 18.1497 23.5467 21.9491 22.8473 24.1511C22.5111 23.3523 22.1641 22.5536 21.7737 21.7872C21.2207 20.4434 20.9659 18.9754 20.7002 17.5399ZM17.1002 18.398C18.8731 17.9392 20.3045 19.9631 21.4918 21.7117C20.852 21.1504 19.746 21.0694 19.0954 20.5189C17.9785 19.6554 17.9568 19.5637 17.1002 18.398ZM20.6243 21.8736C19.8978 22.0625 19.1279 22.3809 18.3797 22.1218C17.9894 21.9275 17.5394 21.7225 17.3116 21.2853C18.4339 20.9993 19.5779 21.431 20.6243 21.8736ZM78.0515 70.6128C77.8075 70.4779 77.7479 69.8573 77.8455 69.4687C78.1816 69.1287 78.8268 68.6484 79.6618 68.249C81.0497 67.5798 80.2527 67.8388 81.1039 66.9537C81.7329 66.3061 82.7196 65.9823 83.8419 65.6315C84.8341 64.6601 85.3112 63.2677 85.5552 61.9292C85.7179 61.2222 85.2191 60.3587 85.7938 59.7867C85.7504 59.2848 86.0323 58.7343 85.5064 58.5022C85.2353 58.2809 85.604 57.9679 85.7775 57.9032C85.81 57.2016 85.8155 56.5 85.7938 55.793C85.7341 55.7984 85.0673 56.0358 84.7094 56.1276C84.5685 56.16 84.5034 56.106 84.498 56.106C84.3245 55.4098 85.3221 55.5663 85.7124 55.3342C85.3438 54.719 85.3817 55.005 85.8154 54.1685C86.1841 54.0498 86.0811 54.5463 86.4281 54.5355C86.5637 54.8215 86.2655 54.9619 86.1082 55.1454C86.5637 55.1615 86.9703 54.8701 87.4311 54.9673C87.4691 55.1561 87.4745 55.2695 87.3335 55.3504C86.8185 55.6527 87.0679 55.2263 86.1299 55.7066C86.2655 56.5054 86.195 57.3095 86.2655 58.1136C86.7968 58.3133 86.3468 58.7289 86.2655 58.8314C86.0757 59.0851 86.0757 59.6248 86.195 59.8029C86.6667 60.526 86.4335 60.6987 86.4715 61.1791C86.7155 62.6146 87.0679 64.8597 88.4775 65.6477C89.8763 66.1658 91.5896 66.9537 91.9691 68.4541C92.8583 68.8696 93.7583 69.5226 94.0294 70.2566L94.1758 70.4617L94.1107 70.629L94.0131 70.7154L94.1107 70.7963L94.1812 70.969L94.0294 71.1363L93.8993 71.2173L93.9426 71.3198L94.0348 71.5303L93.7204 71.622L93.6011 71.6544C93.5794 71.703 93.5523 71.7516 93.5306 71.7947V71.8109L93.5143 72.016L93.3734 72.0052C93.3517 72.0268 93.33 72.0484 93.3029 72.0646C93.2541 72.1563 93.2216 72.2103 93.1999 72.2589C93.1999 72.5557 93.2053 72.8471 93.2216 73.1386L93.4872 80.9802C93.0101 80.4783 92.148 79.7281 92.2944 79.0697C91.0203 79.5878 90.1637 79.5177 89.9143 79.8901C89.8818 78.0983 89.8221 76.4199 89.8221 74.6281C89.8221 74.4014 89.5998 73.9643 89.3342 73.9697C89.0631 73.9751 88.8462 74.164 88.8462 74.3906C88.8462 76.2094 88.9655 77.0729 89.0089 78.9024C88.9818 78.9024 89.0034 78.6919 88.9763 78.6866C88.792 77.1646 87.6968 77.2348 85.9564 75.5564C85.7233 75.3351 85.6853 75.1192 85.6094 74.8818C85.4847 74.4662 85.295 74.4824 84.9154 74.531C80.6594 75.0814 78.2846 75.5186 74.2129 76.5602C73.8063 73.3436 77.7858 72.2427 77.634 72.8309C77.4985 73.349 78.1762 73.824 78.8539 74.5471C78.8431 73.4462 78.6967 72.3506 78.8539 71.2496C78.5069 69.6252 83.354 68.5026 87.3877 68.4972C87.7944 68.4972 88.7757 68.5566 89.7083 68.7131C90.6408 68.8696 91.6113 69.215 91.9962 69.2906C88.7486 67.1642 80.6485 67.3261 78.0515 70.6128ZM77.4009 71.6112C77.4009 71.6274 77.4009 71.6382 77.4009 71.6544C77.4063 71.6544 77.4117 71.6544 77.4172 71.6544L77.5907 72.1347L77.531 72.1401C76.078 72.329 74.5057 72.8201 73.4918 73.9481C72.7436 74.7846 72.5322 75.6265 72.3966 75.6157C71.09 73.6189 67.5875 72.3236 64.8875 72.3182C63.6134 72.3182 63.7598 71.8001 63.2393 71.703C63.158 71.6868 63.0875 71.5789 63.0061 71.595C62.567 72.2049 62.3718 72.5341 61.6941 72.7716C60.3549 73.2411 58.1483 74.8764 57.1778 76.0151C56.6139 75.3945 53.491 73.6513 52.9217 73.3328C52.8837 71.0716 52.8133 68.7941 52.8133 66.5436C52.8133 66.2521 52.5476 65.6585 52.2277 65.6261C51.9078 65.5937 51.6422 65.8096 51.6422 66.0956C51.6422 68.2706 51.6584 70.548 51.7018 72.7446C50.3464 72.1509 48.7578 71.8271 46.7789 71.5141C46.8114 66.6137 46.9198 62.1883 46.9523 57.2879L46.4698 56.6511C44.0897 51.0437 60.1814 50.0939 64.3507 50.7253C64.367 50.7091 64.3887 50.6875 64.4104 50.6713C62.5182 50.0777 57.1832 48.7015 49.0668 51.4809H49.056C46.562 52.7869 44.5071 53.7584 46.0849 56.7158C46.215 56.9101 46.3668 57.1098 46.5403 57.3203L46.5674 57.7197C46.4102 57.5685 46.2529 57.4174 46.0957 57.2609L46.0469 57.3473L45.7433 57.3743L45.6132 56.8616L45.0981 56.7374L45.1686 56.2301L44.5559 55.8146L44.7999 55.4854C44.7891 55.4422 44.6264 55.4638 44.6156 55.4152L44.274 55.1184L44.3445 54.9133L44.1656 54.4492C44.0734 54.2117 44.1439 53.8933 44.3608 53.5371C44.7349 52.9326 45.559 52.2202 46.7843 51.6104C49.2729 50.3691 48.0584 50.871 49.815 49.2627C50.5253 48.6151 51.3765 48.124 52.2548 47.5303C54.044 46.0732 55.2259 43.9414 55.6705 41.6909C55.9308 40.7842 56.0826 39.7966 55.7519 38.9115C55.3452 38.1829 56.3428 38.2207 56.294 37.6379L56.2723 37.4004C56.2127 37.001 56.3753 36.4128 55.8982 36.2617C55.6 36.1915 55.4591 35.8407 55.6434 35.5924C55.8223 35.6248 56.1422 35.6788 56.1314 35.4035C56.0229 34.2 55.9958 32.9857 55.8657 31.7876C55.2259 31.7661 54.3259 32.5216 53.8868 32.5216C53.6916 32.5216 53.6319 32.2032 53.6482 31.8254C54.391 31.5718 55.1771 31.3937 55.8711 31.0159L55.8928 30.8108C55.1067 31.2102 55.2476 30.6489 55.2802 30.3251C55.3994 30.2171 55.5621 30.1362 55.6814 30.0283C56.2398 29.5156 55.497 29.1108 56.3537 29.3051C56.3157 29.6883 56.4946 29.8556 56.8796 29.8232C57.335 30.5949 56.1856 30.3035 56.3808 30.9241C57.1236 30.6813 57.8501 30.3143 58.6416 30.2873C58.7121 30.5356 58.6579 30.7245 58.5061 30.8378C58.4193 30.9026 58.3001 30.9457 58.1645 30.9673V30.9835C58.0778 31.0051 57.991 31.0375 57.9151 31.0753L57.4597 31.1994C57.1344 31.2857 56.8091 31.3883 56.5217 31.5664C56.4513 32.6889 56.6952 33.7953 56.6519 34.9178C56.6356 35.1283 56.5922 35.8299 57.0151 35.7921C57.541 35.7705 57.6061 37.0928 56.7657 36.5639C56.7766 36.8715 56.8145 37.1791 56.8579 37.4867C56.9067 37.5299 56.9284 37.6109 56.8958 37.735L56.9338 37.9725C57.2157 38.0588 57.4705 38.2315 57.5139 38.5499C57.3567 39.5753 57.4217 40.6655 57.7958 41.6423C58.1645 42.7973 58.7284 43.9198 59.4766 44.8967C60.2411 45.8951 61.1844 46.764 62.3339 47.2875C65.6249 48.7878 64.9634 49.7485 65.6574 50.1694C66.3676 48.7932 66.1074 47.1903 66.0911 45.7062C66.3568 45.3176 66.5249 44.8967 66.3297 44.4109C66.3676 43.8119 65.5435 44.0655 65.7875 43.3262C65.9447 43.1805 66.0532 43.0563 66.2592 43.0132C66.1941 42.0741 66.1074 41.1404 66.0206 40.2068L65.717 40.1258C65.511 40.2338 65.2887 40.2877 65.061 40.3255C64.5351 40.9462 63.8194 40.5522 64.1772 39.9639C64.7628 39.8398 65.3375 39.6941 65.923 39.543C65.9935 39.2839 65.7279 39.3109 65.5544 39.2623C65.5273 39.068 65.5056 38.8252 65.7116 38.7226C65.9447 38.5769 65.9122 38.2585 66.064 38.0534C66.4273 38.0156 66.6062 38.4312 66.8935 38.5931C67.067 38.9169 66.7255 39.0842 66.5411 39.2839C67.0291 39.4944 67.4357 39.0303 67.9291 39.0195L68.0375 38.9925C68.352 38.9439 68.8345 38.6849 68.4279 39.5268L68.1893 39.5592L68.0701 39.5753C67.7827 39.8452 67.4791 39.748 66.6658 39.9477C66.4327 40.7842 66.7851 41.6909 66.7797 42.549C66.5899 43.3316 67.414 43.1373 67.349 43.7795C66.4273 44.2544 66.9423 45.1287 67.5225 45.8303C67.2243 48.0269 68.1134 50.2558 69.5882 51.8802C70.3689 52.3606 71.2797 52.5656 72.0605 53.046C72.8792 53.4183 73.5894 53.985 74.2671 54.5571C75.7581 55.1615 78.1003 56.6781 78.1491 58.2593L78.2575 58.3403L78.1437 58.4374C78.1328 58.594 78.0949 58.7505 78.0352 58.9016L78.2575 59.0959L77.7208 59.4197C77.6991 59.4467 77.6774 59.4736 77.6557 59.4952L77.8455 59.927L77.1081 60.1375L77.0702 60.6502L76.7665 60.6232C76.7449 60.58 76.7232 60.5422 76.7015 60.5045C76.8099 64.0772 76.9238 67.6553 77.0322 71.2281C77.1515 71.3522 77.2654 71.4763 77.3846 71.6004C77.3955 71.6058 77.3955 71.6058 77.4009 71.6112ZM52 0C80.719 0 104 23.1742 104 51.7615C104 63.6239 99.9879 74.5525 93.2432 83.2793C93.0535 83.0041 92.8583 82.718 92.6414 82.4158C92.2077 81.8006 91.6384 81.1367 91.4107 80.1923C89.8926 81.5253 87.6426 81.2447 87.5016 85.6917C87.5233 85.6917 87.5396 85.6917 87.5612 85.6917C87.545 86.1181 87.545 86.485 87.545 86.7603L86.9486 86.5822C85.7721 82.1999 85.2895 82.065 83.4136 79.3935C82.9799 78.7783 82.4106 78.1145 82.1829 77.17C82.0473 77.2888 81.7112 77.3805 81.5811 77.5046C78.5232 77.3967 78.5178 83.2145 78.6099 84.2777L78.4364 84.159L74.8581 83.0149C73.5731 79.8847 71.2797 78.53 68.5092 77.5154C67.7827 77.251 67.0291 77.0729 66.2484 76.9973C65.6791 76.938 65.3483 76.9541 64.7736 77.0027C64.4104 77.0351 64.0797 76.9865 63.6025 76.3821C63.5212 76.2795 63.3965 76.1932 63.2989 76.2094C63.2013 76.2364 63.0929 76.3605 63.0333 76.4954C62.67 77.2618 62.361 77.4399 62.0031 77.5532C61.4393 77.7259 61.1194 77.8446 60.5772 78.1199C57.8392 79.5177 55.882 81.6225 56.2344 84.9307L53.7133 85.2977C53.1494 82.0866 49.7554 79.237 46.6542 78.1307C45.8734 77.85 45.0547 77.6665 44.2144 77.5856C43.5963 77.5262 43.2439 77.5424 42.6258 77.591C42.2354 77.6234 41.8776 77.5748 41.3571 76.938C41.2649 76.83 41.1348 76.7437 41.0264 76.7599C40.9179 76.7868 40.8095 76.9218 40.7444 77.0567C40.3649 77.8662 40.0342 78.0497 39.6493 78.1684C39.0474 78.3519 38.7004 78.4707 38.1203 78.7621C37.3287 79.1615 36.5751 79.6472 35.8757 80.2139C33.3709 82.2377 31.5112 85.2492 30.6763 88.6654L28.3829 89C27.7594 86.0155 24.1105 86.0371 21.4593 84.7419C20.749 84.4774 20.8412 83.8082 20.4671 84.1644C20.4075 84.3425 20.2611 84.7526 19.9737 84.9253C18.2062 86.0101 16.596 87.0733 15.8098 88.66C15.7719 88.6222 15.7827 88.6654 15.6201 88.7248C5.98019 79.3396 0 66.2467 0 51.7615C0 23.1742 23.281 0 52 0ZM85.1106 75.3621C85.154 75.1894 82.3672 75.3729 82.9744 76.8138C83.4245 77.8824 85.4197 79.6364 85.6474 80.7751L88.0492 80.0897C87.5721 77.4129 84.8178 76.463 85.1106 75.3621ZM18.8026 67.3747L18.7755 67.8982L18.9544 68.1033C18.9599 68.1357 18.9599 68.1626 18.9653 68.1896L18.7701 68.6052L19.1876 68.7941L19.1496 69.1718L19.5129 69.242L19.5617 69.296L19.5888 69.636L19.8599 69.5712C20.1635 69.8141 20.3966 69.8788 20.2611 69.6953C16.6285 64.7734 31.0449 63.4997 35.6805 66.5004C33.3004 66.101 31.4841 65.8312 29.6244 65.7826C27.7919 65.734 25.9214 65.9013 23.422 66.5274C21.0255 67.1318 19.681 68.3191 21.1611 69.6845L21.2153 70.0839L21.2099 83.2793C21.2695 83.5761 21.3725 83.8568 21.8117 84.0618C22.9828 84.5961 25.2545 84.866 26.8973 85.3301C29.413 86.0479 29.825 86.6955 30.5353 87.4025C31.9612 83.1498 34.3739 80.1005 38.4185 78.1145C39.3402 77.6611 40.1643 77.2024 40.6523 76.3983C40.8637 76.0475 41.189 76.0529 41.4601 76.2795C42.1758 76.8678 42.9131 76.9002 43.3089 76.8894C47.8795 76.7113 54.1253 79.604 55.0579 82.691C56.0121 81.0774 57.232 79.6688 58.6471 78.5624C59.8344 77.6396 60.767 77.4237 62.1387 76.8624C62.3989 76.5224 63.0549 75.3513 63.5266 75.4214C63.8682 74.9897 64.3507 76.0367 65.408 75.9611C67.5442 75.8424 69.9677 76.6303 71.6105 77.3535C70.987 74.5579 68.764 73.8833 66.4056 73.1332C65.5923 72.8741 64.7953 72.7392 64.1068 72.7824C63.673 72.8255 63.4507 72.1941 63.0983 72.3614C62.9574 72.5449 62.7947 72.7716 62.5724 72.9065C60.2411 73.4354 57.6278 76.1662 56.7982 78.3034C56.6844 78.6002 56.6031 78.6596 56.5597 78.9294C57.2103 79.1129 53.2253 73.0954 44.7891 72.642C43.9812 72.5989 43.6288 71.7785 43.2818 71.9243C42.8481 72.1024 42.0457 73.2519 41.7963 73.3113C37.9902 74.8817 36.0492 75.5672 33.6853 79.264C32.9534 80.1059 31.1913 84.5907 31.1642 84.2885C30.8606 81.304 25.1678 79.9926 23.1238 81.1907C26.9244 79.1615 31.6684 80.5863 32.0046 80.6618C33.0672 78.0551 34.8076 75.6265 37.1715 74.0128C37.1661 74.0075 37.0468 70.2296 37.0739 69.7223C37.1119 69.6954 37.1444 69.6738 37.1769 69.6468L37.4263 69.6684L37.4426 69.4309C37.5239 69.3607 37.5998 69.2852 37.6649 69.2096L37.9685 69.0639C37.936 68.9938 37.8709 68.7131 37.8926 68.6537L38.1366 68.4595C38.1095 68.4055 37.9902 68.0709 37.9902 68.0655L38.2071 67.8874L38.0281 67.6283C37.7137 66.781 36.6727 66.0255 35.648 65.5451C35.2088 63.8127 33.5227 62.9061 31.907 62.307C30.2805 61.3949 29.8738 58.799 29.5919 57.1422C29.5485 56.5863 29.8142 56.3812 29.272 55.5501C29.1365 55.3396 29.1365 54.719 29.3588 54.4276C29.4509 54.3034 29.966 53.8231 29.3588 53.5964C29.2774 52.6682 29.3588 51.7345 29.2015 50.8117C30.2805 50.2612 29.9931 50.7469 30.5895 50.4015C30.7522 50.3097 30.7413 50.1802 30.6979 49.9589C30.1666 49.8456 29.6949 50.1856 29.169 50.1694C29.3479 49.9589 29.6949 49.797 29.5377 49.4678C29.1365 49.484 29.2503 48.9066 28.8274 49.0469C28.3232 50.0129 28.2798 49.6837 28.7082 50.3907C28.2527 50.6551 27.1033 50.477 27.3039 51.2812C27.3094 51.2758 27.3907 51.3459 27.5533 51.3028C27.9708 51.2002 28.7407 50.925 28.8058 50.9196C28.8329 51.7291 28.822 52.5441 28.7841 53.3536C28.5835 53.4291 28.1606 53.7907 28.4696 54.0444C29.0768 54.3088 28.7515 54.9457 28.8003 55.5231C28.128 56.1762 28.7082 57.18 28.5238 57.9949C28.2419 59.5384 27.6889 61.1467 26.5449 62.2692C25.3738 62.6416 24.2027 63.068 23.3894 63.7372C21.8713 64.9893 23.0099 64.4604 20.6243 65.5613C19.2255 66.1982 18.4773 66.7702 18.8026 67.3747ZM64.2477 62.6524C63.7164 63.1921 63.9116 64.0124 63.9441 64.6924L64.0309 70.6182L65.267 70.5157L65.1586 63.6616C65.305 63.1381 64.9797 62.28 64.2477 62.6524ZM24.2677 71.6652C24.0075 71.6922 23.7906 72.2373 23.7906 72.5017C23.7906 74.7414 23.7256 77.0135 23.6985 79.2586L24.6364 78.9726C24.6798 76.7868 24.7449 74.2827 24.7449 72.097C24.7449 71.8325 24.5334 71.6382 24.2677 71.6652ZM31.7335 71.3306C31.419 71.336 31.1588 71.5573 31.1588 71.8217C31.1588 74.0075 31.2401 76.5008 31.2889 78.6812L32.4166 78.8431C32.3841 76.6034 32.3028 74.3421 32.3028 72.1024C32.3082 71.8433 32.048 71.3252 31.7335 71.3306ZM58.9019 61.1575C58.8422 61.0657 58.788 60.974 58.7338 60.8822L58.7718 60.8229C58.6254 60.5854 58.5007 60.3372 58.3922 60.0781C57.3567 55.2965 71.9791 54.1361 75.8448 56.6565C75.9641 56.7212 76.078 56.8022 76.1918 56.8939C73.8063 54.1037 66.7851 54.1793 63.5971 54.8323C61.2224 55.3181 58.2133 56.5539 57.0151 58.1946C56.8904 58.3781 57.3621 58.5022 57.297 58.6857L57.0205 59.0581L57.3838 59.2632L57.0802 59.6463L57.644 59.9864C57.6549 60.0133 57.5302 60.0403 57.5356 60.0727L57.4868 60.4829L57.8989 60.6016C58.0127 60.8067 58.0019 60.9848 58.1266 61.1305L58.2675 61.2061L58.3218 61.2007C58.3706 61.2546 58.4248 61.3086 58.4681 61.3518C58.8422 61.6702 59.1784 61.6162 58.9019 61.1575ZM71.7081 70.4833L72.8358 70.6668C72.8032 68.0925 72.7219 65.4966 72.7219 62.9277C72.7219 62.6254 72.4671 62.0318 72.1472 62.0426C71.8328 62.0534 71.5725 62.307 71.5725 62.6092C71.5779 65.1134 71.6593 67.9791 71.7081 70.4833Z" fill="#FEFFFF"/>
<path fill-rule="evenodd" clip-rule="evenodd" d="M152.92 16.6202C153.163 18.7288 153.375 20.831 153.612 22.946L148.968 24.5725C149.116 22.7403 148.923 20.831 149.546 19.076C150.482 18.0281 151.791 17.4109 152.92 16.6202ZM162.503 36.3627C158.795 26.9447 158.404 16.6845 158.654 6.68787C156.223 6.68787 153.798 6.68787 151.367 6.70716C151.842 9.2272 152.336 11.7344 152.734 14.2544C149.68 15.8102 145.613 16.3245 143.766 19.526C143.554 22.5539 145.755 24.1161 144.164 27.729C142.887 30.6347 142.842 33.3284 141.829 36.3049C144.324 36.4206 146.268 36.4206 148.769 36.4206C148.994 33.4827 147.839 30.6926 149.238 28.1918C150.226 26.5911 152.265 26.4047 153.888 25.8261C154.151 29.3362 154.414 32.8591 154.568 36.3756C157.217 36.4141 159.86 36.4077 162.503 36.3627ZM164.742 38.902C165.864 29.8954 159.726 18.5617 163.138 9.71578C164.947 5.69142 169.938 6.59787 173.498 6C173.498 8.16004 173.491 10.3265 173.498 12.4801L169.482 11.8823C167.006 14.338 168.007 18.0731 168.032 21.1653C168.462 24.5146 168.218 30.6155 169.707 33.7077C171.201 33.5277 172.657 33.1741 174.146 32.8912C172.895 37.0056 168.744 38.857 164.742 38.902ZM210.689 21.9303C210.818 25.5625 210.709 29.1883 210.465 32.8141L206.026 32.7884C206.148 30.159 205.782 27.3818 206.777 24.8811C207.899 23.666 209.355 22.8689 210.689 21.9303ZM210.792 18.9924C207.739 20.7281 203.851 21.281 201.452 23.9875C200.343 26.7454 201.106 29.8569 200.958 32.7691C200.118 32.8076 198.457 32.8655 197.623 32.8976C198.579 35.8098 199.695 38.6835 201.035 41.4414C201.542 42.2514 201.792 43.6207 203.018 43.4536C203.492 40.9399 203.717 38.3942 204.037 35.8548C207.354 35.8548 210.67 35.8356 213.986 35.8934C214.371 38.587 214.66 41.2999 215.135 44C217.675 40.8049 218.862 36.8063 220.331 33.0584C219.227 32.9169 218.124 32.7755 217.027 32.6534C216.379 27.7997 215.981 22.9075 216.11 18.0024C216.193 13.9459 215.84 9.49721 218.323 6C212.627 6.07714 209.349 6.01929 203.653 6.03857C203.839 7.92861 204.037 9.82507 204.243 11.7087C204.98 10.9501 205.737 10.1851 206.481 9.42649C208.515 9.20792 208.13 9.0022 210.176 8.8222C210.542 12.2037 210.773 15.5916 210.792 18.9924ZM221.492 36.0991C222.55 30.2362 223.397 24.3153 223.217 18.3495C223.057 14.2866 223.236 9.93436 221.094 6.30215C223.782 6.40501 226.476 6.39858 229.163 6.43072C228.74 9.74793 228.31 13.0523 228.034 16.3759C230.267 15.4373 230.883 14.7302 233.07 13.7209C232.845 11.3615 232.557 9.01506 232.274 6.66216C235.084 6.66216 237.887 6.67501 240.69 6.63644C239.914 7.98647 238.907 9.29792 238.772 10.9051C237.528 19.3781 238.343 27.9926 239.966 36.337C237.49 36.3949 235.014 36.3949 232.531 36.3434C233.038 29.979 233.718 23.6018 233.493 17.2116C231.081 17.9702 230.254 18.4138 227.823 19.1081C227.951 24.7911 228.355 30.4547 228.952 36.0991C226.476 36.1184 223.98 36.1313 221.492 36.0991ZM241.967 10.2687C239.26 18.9538 244.61 27.594 243.397 36.3884C247.509 36.5041 251.364 34.3955 253 30.5383C251.326 30.7247 249.677 31.2005 247.99 31.0912C247.419 28.3268 247.233 25.5239 247.002 22.721L251.031 21.8982V18.1181C249.594 18.5874 248.163 19.076 246.733 19.5517C246.957 16.9416 246.489 13.9009 248.574 11.9144C249.94 12.0815 251.3 12.2615 252.666 12.4416L252.673 6.01286C248.946 6.56573 243.494 5.76857 241.967 10.2687ZM202.838 19.6031C201.375 21.6282 200.003 24.1803 197.341 24.7204C192.074 24.0646 190.4 16.6395 193.344 12.7566C195.602 9.25292 200.214 11.2715 203.576 10.6672C202.684 12.268 201.978 14.0423 200.586 15.2895C199.073 14.8459 197.649 14.158 196.218 13.528C196.122 14.3637 196.038 15.193 195.955 16.0288C197.835 16.1573 199.72 16.2795 201.6 16.5045C200.022 17.4752 198.38 18.3302 196.751 19.2045C198.656 20.4131 200.734 20.3617 202.838 19.6031ZM191.369 35.7134C189.868 25.9097 188.463 15.8488 190.483 6.01286C188.142 6.00643 185.801 6.00643 183.466 6.00643L184.062 11.5222C181.465 12.7694 178.7 14.7559 176.326 16.4145C174.101 18.2595 173.639 27.5554 172.632 30.1012C175.063 30.1655 178.2 30.1655 180.624 30.1783C180.618 29.619 179.598 26.9125 179.643 25.3954C179.72 22.6439 179.867 20.246 180.008 19.2431C180.547 17.2502 182.626 15.418 184.172 14.3637C184.717 21.4803 184.582 28.6226 183.697 35.707C186.25 35.7263 188.809 35.7327 191.369 35.7134ZM176.628 8.50076C176.628 7.33717 177.571 6.39215 178.732 6.39215C179.893 6.39215 180.836 7.33717 180.836 8.50076C180.836 9.66435 179.893 10.6094 178.732 10.6094C177.571 10.6094 176.628 9.66435 176.628 8.50076ZM134.362 19.3524C134.439 25.0161 133.83 30.654 133.355 36.2791C135.85 36.2791 138.333 36.2791 140.828 36.2534C139.706 30.4419 138.897 24.5339 139.026 18.6002C139.244 14.5759 139.071 10.3072 141.175 6.6943C138.474 6.75216 135.767 6.75216 133.073 6.77787C133.541 10.0629 133.958 13.3544 134.202 16.6652C131.957 15.7459 129.763 14.7237 127.582 13.6823C127.864 11.3872 128.14 9.07934 128.377 6.77144C125.574 6.75216 122.784 6.77144 120 6.68787C120.821 8.07004 121.841 9.43935 121.95 11.1172C123.015 19.4938 122.425 28.0247 120.686 36.2727C123.201 36.292 125.709 36.2791 128.236 36.2341C127.563 29.9469 127.011 23.6275 127.293 17.2888C129.635 18.0024 131.995 18.6838 134.362 19.3524Z" fill="#FEFFFF"/>
<path fill-rule="evenodd" clip-rule="evenodd" d="M124.832 55.715C125.089 53.5714 125.493 51.4597 126.122 49.4692L128.951 49.7882C129.176 51.6128 129.605 53.8075 128.335 55.0898C127.18 55.4152 126.013 55.6321 124.832 55.715ZM121.316 47.8488C118.404 50.4581 119.738 55.5173 119.975 59.4217C121.053 67.7346 120.425 76.0346 119.751 84.2135C122.266 84.2263 124.768 84.2263 127.289 84.2135C126.09 75.939 124.941 67.5814 125.063 59.2431C127.514 59.2813 130.26 59.7024 132.274 57.7502C135.193 55.1536 135.54 50.2093 136.015 45.9986C131.164 46.9875 125.557 44.0783 121.316 47.8488ZM151.008 79.2756C155.018 79.2309 159.162 77.3872 160.413 73.3105C158.925 73.5912 157.469 73.9421 155.974 74.1207C154.485 71.052 154.729 67.4411 154.299 64.1172C154.274 61.0422 153.273 57.3355 155.749 54.8984L159.759 55.4917C159.746 53.3545 159.759 51.2109 159.759 49.0609C156.198 49.6542 151.213 48.7547 149.398 52.7484C145.991 61.5334 152.131 70.3439 151.008 79.2756ZM167.509 53.7947C168.593 62.1714 167.945 70.6948 166.245 78.9438C168.76 78.963 171.269 78.9566 173.784 78.9056C173.482 76.0538 173.168 73.202 173.033 70.3311C175.169 71.0265 178.011 71.5752 178.461 74.2356C179.153 79.4925 178.73 84.9536 177.043 90C179.789 88.8453 183.702 88.4051 185.037 85.3747C185.043 80.8195 184.446 76.2069 183.683 71.7092C181.264 68.4044 176.491 68.3853 172.834 67.2624C172.603 63.9705 172.853 60.6913 172.956 57.4121C176.369 57.8778 180.289 57.2972 182.464 54.3561C186.153 49.9541 181.072 43.1724 186.198 39.4019C183.144 39.5869 179.481 39.4976 177.37 42.0878C176.382 45.6477 178.23 49.3034 177.723 52.9271C177.274 55.0707 174.951 54.6113 173.334 54.6624C173.501 52.9334 173.719 51.2045 173.905 49.4756C171.115 49.4565 168.33 49.4756 165.546 49.3927C166.38 50.7771 167.394 52.1296 167.509 53.7947ZM180.565 57.68C183.15 56.1297 187.84 57.6864 187.738 61.1442C187.654 63.5941 187.179 66.3629 185.223 68.0663C182.708 69.7569 178.634 67.9642 178.095 64.9976C177.537 62.3947 178.319 59.3069 180.565 57.68ZM181.822 60.0916C184.235 60.2702 184.831 63.4729 184.138 65.3868C181.822 64.6404 180.918 62.3309 180.931 60.0916H181.822ZM194.827 52.0849C197.201 52.1679 199.356 52.9462 200.659 55.0452C201.082 53.2078 201.493 51.3576 201.903 49.5075C196.848 49.3863 191.792 49.5139 186.743 49.4054C187.481 50.809 188.501 52.1551 188.629 53.8011C189.669 62.1714 189.034 70.6693 187.5 78.9375C189.983 78.9502 192.479 78.9566 194.981 78.9119C193.967 70.0185 193.095 60.9592 194.827 52.0849ZM208.056 49.2715C211.347 48.659 214.67 49.6351 217.994 49.2906C215.62 56.7996 218.86 64.6467 217.314 72.2004C215.774 77.7444 209.384 79.2118 204.354 79.5372C205.374 71.4604 201.307 63.7408 202.32 55.6704C202.686 52.64 204.976 49.8456 208.056 49.2715ZM212.265 51.6128C210.359 52.3465 208.531 53.6033 208.518 55.8235C207.883 62.4648 209.076 69.1253 209.153 75.7795C211.155 74.7651 212.329 72.7873 212.226 70.5289C212.207 64.2257 211.694 57.9097 212.265 51.6128ZM166.303 66.1906C164.994 67.977 163.769 70.2227 161.388 70.6948C156.679 70.1206 155.185 63.5813 157.821 60.1617C159.842 57.0803 163.961 58.8539 166.97 58.3244C166.175 59.7343 165.539 61.2973 164.301 62.3947C162.948 62.0055 161.677 61.3994 160.394 60.8444C160.311 61.5781 160.234 62.3117 160.163 63.0454L160.875 65.8398C162.563 66.9052 164.423 66.8541 166.303 66.1906ZM136.669 74.2228C138.093 76.0857 139.967 78.0251 139.704 80.5898C138.074 80.2708 136.406 79.4606 135.604 77.9486C134.815 76.6599 136.194 75.3903 136.669 74.2228ZM142.507 74.5609C143.778 78.2038 141.442 82.4208 137.991 83.9966C134.943 84.9791 132.448 81.9104 131.941 79.2437C131.395 76.5004 133.692 74.4588 135.181 72.4365C132.467 69.1891 130.465 66.6628 130.067 61.9927L136.56 60.4935C135.713 62.937 136.554 67.0519 138.023 69.3167C139.255 67.3645 140.826 65.3677 140.749 62.9625C140.724 59.7279 139.389 53.0993 138.831 49.935L146.491 50.0753L146.235 53.7692C145.991 57.2462 145.811 60.7614 144.971 64.1746C144.374 67.1412 141.551 68.8319 139.665 70.9755C140.615 72.1557 141.789 73.1956 142.507 74.5609ZM253.742 64.1045C253.819 62.8285 253.883 61.5589 253.941 60.2893C252.504 60.7551 251.073 61.2399 249.642 61.7184C249.745 59.1346 249.167 56.1361 251.259 54.1456L255.5 54.7517C255.519 52.6145 255.519 50.4772 255.487 48.3336C251.868 48.8887 246.787 47.9445 244.92 52.002C241.565 60.7232 247.506 69.6166 246.088 78.4845C250.2 78.4909 254.236 76.5323 255.699 72.513C254.095 72.8001 252.51 73.202 250.887 73.3041C250.001 70.5991 250.001 67.7027 249.822 64.8892L253.742 64.1045ZM280.078 64.0279C278.198 64.6978 276.344 64.7424 274.637 63.677C276.094 62.9051 277.563 62.1522 278.974 61.2973C277.294 61.0996 275.613 60.9911 273.932 60.8763C274.009 60.1426 274.079 59.4089 274.163 58.6753C275.439 59.2303 276.716 59.8364 278.07 60.2255C279.314 59.1282 279.95 57.5716 280.739 56.1552C277.73 56.6848 273.611 54.9112 271.59 57.9926C268.953 61.4122 270.448 67.9515 275.157 68.5256C277.544 68.0599 278.769 65.8142 280.078 64.0279ZM286.173 56.0276C286.429 54.3434 286.834 52.691 287.462 51.1344L290.292 51.3832C290.516 52.8122 290.946 54.5348 289.676 55.5364C288.521 55.7916 287.353 55.9575 286.173 56.0276ZM282.657 49.8648C286.904 46.9109 292.505 49.1885 297.362 48.4166C296.887 51.7149 296.54 55.5874 293.621 57.6226C291.613 59.1537 288.861 58.822 286.41 58.7965C286.288 65.3294 287.437 71.875 288.636 78.3633C286.115 78.3697 283.613 78.3697 281.098 78.3633C281.772 71.9516 282.4 65.4506 281.323 58.9368C281.079 55.8745 279.744 51.9063 282.657 49.8648ZM264.129 71.3583C265.373 71.3583 266.682 71.0776 267.882 71.5369C268.478 72.6597 268.632 73.9548 268.908 75.1861C267.458 75.2691 266.015 75.3329 264.565 75.3839C264.398 74.0442 264.251 72.7108 264.129 71.3583ZM264.007 54.2796C264.847 52.1168 266.573 50.7771 268.96 50.8983C269.024 52.0722 269.069 53.2461 269.12 54.4263C267.433 55.2812 265.675 54.9176 264.007 54.2796ZM274.625 52.876C272.86 56.7868 267.952 58.3307 263.962 57.227C263.712 61.1123 263.673 65.0104 263.962 68.8957C266.785 68.0982 270.147 66.6691 272.867 68.532C275.221 71.2243 274.67 75.1032 275.504 78.3633C269.46 78.3378 263.404 78.4271 257.354 78.3059C258.412 72.4556 259.323 66.5288 258.977 60.5701C258.855 57.8586 258.592 55.1153 258.958 52.4103C260.132 48.6845 264.584 48.3017 267.869 48.0146C267.561 46.0816 266.984 44.1293 267.317 42.1644C269.511 39.4147 273.316 39.1276 276.575 39L274.426 41.469C274.317 45.2649 275.439 49.112 274.625 52.876ZM239.448 45.6669C240.436 45.5903 241.507 45.1948 242.469 45.5712C243.374 46.6111 242.168 47.7084 241.969 48.7802C241.161 52.0849 241.661 55.479 242.303 58.7646C239.845 58.771 237.401 58.873 234.944 58.8348C235.284 55.5619 235.643 52.2253 234.777 48.9907C232.423 49.3225 231.479 51.3959 231.511 53.2716C231.402 60.0597 232.634 66.7903 233.096 73.5593C233.282 76.0729 232.775 78.5738 232.115 81.0109C235.149 79.2501 235.99 75.9581 236.073 72.9724C236.208 70.2163 235.643 67.4921 235.393 64.7552C237.715 64.7361 240.038 64.6276 242.36 64.5766C241.751 69.7442 242.495 75.6965 238.396 79.9455C235.996 82.5931 231.621 82.1848 228.811 84.2965C227.624 85.0429 227.014 86.2487 226.219 87.2758C225.089 86.6634 223.716 85.9552 223.716 84.6282C224.557 82.81 226.95 82.3825 228.573 81.2852C229.497 79.0013 228.952 76.5004 228.329 74.2037C226.873 69.3678 224.846 64.6212 224.364 59.6067C224.044 56.4934 223.96 52.9526 226.469 50.4581C229.702 47.198 234.841 46.3942 239.448 45.6669ZM302.963 58.7773C303.206 60.8699 303.418 62.9561 303.655 65.055L299.011 66.6691C299.158 64.8509 298.966 62.9561 299.588 61.2144C300.525 60.1809 301.833 59.5684 302.963 58.7773ZM312.548 78.3697C308.839 69.0233 308.448 58.8411 308.698 48.9206C306.267 48.9206 303.842 48.9206 301.41 48.9397C301.885 51.4406 302.379 53.9287 302.777 56.4296C299.723 57.9735 295.655 58.4839 293.807 61.661C293.596 64.6659 295.796 66.2162 294.205 69.8016C292.928 72.6853 292.884 75.3584 291.87 78.3122C294.366 78.4271 296.31 78.4271 298.812 78.4271C299.036 75.5115 297.881 72.7427 299.28 70.2609C300.268 68.6724 302.308 68.4874 303.931 67.9132C304.194 71.3965 304.457 74.8927 304.611 78.3824C307.261 78.4271 309.904 78.4207 312.548 78.3697ZM111 65.3166C111 66.4714 111.943 67.4092 113.104 67.4092C114.266 67.4092 115.209 66.4714 115.209 65.3166C115.209 64.1619 114.266 63.224 113.104 63.224C111.937 63.2304 111 64.1619 111 65.3166ZM312.791 65.3166C312.791 66.4714 313.734 67.4092 314.896 67.4092C316.057 67.4092 317 66.4714 317 65.3166C317 64.1619 316.057 63.224 314.896 63.224C313.734 63.2304 312.791 64.1619 312.791 65.3166Z" fill="#FEFFFF"/>
</svg>
