<svg width="275" height="208" viewBox="0 0 275 208" fill="none" xmlns="http://www.w3.org/2000/svg">
<g clip-path="url(#clip0_313_3724)">
<path d="M122.671 216.229H152.654C153.003 216.229 153.282 215.947 153.282 215.595V187.317C153.282 182.24 150.911 177.727 147.215 174.836C146.611 174.366 145.984 173.943 145.31 173.543C145.031 173.379 144.752 173.237 144.45 173.096C144.031 172.885 143.613 172.72 143.171 172.532C141.451 171.874 139.592 171.498 137.639 171.498C135.687 171.498 133.827 171.851 132.107 172.532C131.666 172.697 131.247 172.885 130.829 173.096C130.55 173.237 130.248 173.379 129.969 173.543C129.295 173.919 128.667 174.366 128.063 174.836C124.414 177.704 122.043 182.24 122.043 187.317V215.595C122.043 215.947 122.322 216.229 122.671 216.229ZM123.321 187.482H129.318V193.523H123.321V187.482ZM152.027 208.167H146.03V202.126H152.027V208.167ZM123.321 202.126H129.318V208.167H123.321V202.126ZM123.321 194.816H129.318V200.857H123.321V194.816ZM130.597 186.213V180.172H137.012V186.213H130.597ZM130.597 200.857V194.816H137.012V200.857H130.597ZM130.597 193.523V187.482H137.012V193.523H130.597ZM137.012 202.126V208.167H130.597V202.126H137.012ZM152.027 200.857H146.03V194.816H152.027V200.857ZM138.313 186.213V180.172H144.728V186.213H138.313ZM138.313 200.857V194.816H144.728V200.857H138.313ZM138.313 193.523V187.482H144.728V193.523H138.313ZM144.752 202.126V208.167H138.313V202.126H144.752ZM152.027 193.523H146.03V187.482H152.027V193.523ZM123.321 209.46H129.318V214.937H123.321V209.46ZM130.597 209.46H137.012V214.937H130.597V209.46ZM138.313 209.46H144.728V214.937H138.313V209.46ZM152.027 214.937H146.03V209.46H152.027V214.937ZM146.03 186.213V180.172H150.167C151.19 181.982 151.818 184.027 151.98 186.213H146.03ZM149.354 178.879H146.03V175.518C147.308 176.458 148.424 177.586 149.354 178.879ZM144.38 174.483C144.496 174.554 144.612 174.624 144.728 174.671V178.879H138.313V172.814C139.661 172.885 140.963 173.12 142.195 173.543C142.962 173.802 143.682 174.107 144.38 174.483ZM137.012 172.814V178.879H130.597V174.695C130.713 174.624 130.829 174.554 130.945 174.507C131.642 174.131 132.363 173.802 133.13 173.567C134.362 173.12 135.664 172.861 137.012 172.814ZM129.295 175.518V178.879H125.994C126.901 177.586 128.017 176.458 129.295 175.518ZM125.181 180.172H129.295V186.213H123.345C123.507 184.027 124.158 181.982 125.181 180.172Z" fill="#6596C9"/>
<path d="M289.256 368.57C289.256 368.523 289.256 368.5 289.256 368.453C289.256 368.453 289.256 368.453 289.256 368.429C289.256 368.406 289.233 368.359 289.233 368.335C289.233 368.335 289.233 368.312 289.209 368.312C289.186 368.288 289.186 368.241 289.163 368.218L287.28 365.42V360.837C287.28 360.837 287.28 360.837 287.28 360.813C287.28 360.79 287.28 360.743 287.28 360.719V360.696C287.28 360.649 287.257 360.625 287.257 360.602V360.578C287.234 360.555 287.234 360.531 287.21 360.508L287.187 360.484C287.187 360.484 287.187 360.461 287.164 360.461L285.026 357.687V353.127C285.026 353.08 285.026 353.056 285.002 353.009C285.002 352.986 285.002 352.986 285.002 352.962C285.002 352.939 284.979 352.915 284.979 352.892C284.979 352.868 284.956 352.868 284.956 352.845C284.956 352.821 284.933 352.798 284.933 352.774C284.933 352.751 284.909 352.751 284.909 352.727C284.886 352.704 284.886 352.68 284.863 352.68C284.863 352.657 284.84 352.657 284.84 352.657C284.816 352.633 284.816 352.633 284.793 352.61C284.77 352.61 284.77 352.586 284.747 352.586C284.723 352.563 284.7 352.563 284.677 352.563C284.654 352.563 284.654 352.539 284.63 352.539C284.63 352.539 284.63 352.539 284.607 352.539L272.288 347.909V343.584C272.288 343.537 272.288 343.513 272.288 343.466V343.443C272.288 343.419 272.265 343.372 272.265 343.349C272.265 343.349 272.265 343.349 272.265 343.325C272.265 343.302 272.242 343.278 272.218 343.255L270.545 340.457V335.85C270.545 335.85 270.545 335.85 270.545 335.827C270.545 335.78 270.545 335.756 270.545 335.709C270.545 335.709 270.545 335.709 270.545 335.686C270.545 335.662 270.522 335.615 270.522 335.592C270.522 335.592 270.522 335.568 270.498 335.568C270.475 335.545 270.475 335.521 270.452 335.498V335.474L268.546 332.677V328.093V328.07C268.546 328.046 268.546 327.999 268.546 327.976C268.546 327.952 268.546 327.952 268.546 327.929C268.546 327.905 268.523 327.882 268.523 327.858C268.523 327.835 268.5 327.835 268.5 327.811C268.5 327.788 268.476 327.764 268.476 327.741C268.476 327.717 268.453 327.717 268.453 327.694C268.43 327.67 268.43 327.647 268.407 327.647L268.383 327.623C268.36 327.6 268.337 327.576 268.314 327.576L268.29 327.553C268.267 327.529 268.244 327.529 268.197 327.506H268.174L257.273 322.898V289.356H259.969C260.318 289.356 260.597 289.074 260.597 288.721V261.548C260.597 259.409 258.877 257.67 256.762 257.67H237.632V183.039C237.632 175.682 232.775 169.429 226.127 167.431V125.051H228.358C228.614 125.051 228.846 124.886 228.939 124.651V124.628V124.604V124.58C228.939 124.58 228.939 124.557 228.963 124.533V124.51C228.963 124.486 228.986 124.463 228.986 124.463C228.986 124.463 228.986 124.463 228.986 124.439C228.986 124.416 229.009 124.392 229.009 124.369C229.335 123.499 230.218 120.702 230.195 116.871C230.195 116.4 230.171 115.93 230.148 115.437C229.823 110.548 227.754 103.378 219.782 97.0317C210.786 89.8625 207.904 80.7658 207.021 74.9598C207.811 74.5837 208.346 73.7846 208.346 72.8443C208.346 71.8336 207.718 70.9874 206.835 70.6583V60.7624L208.787 61.9612L209.601 60.5978L206.835 58.9054V45.5071H215.714V43.9087H206.789V40.2418H209.787V38.6435H206.789V34.1539H205.208V38.6435H202.21V40.2418H205.208V43.9087H196.283V45.5071H205.208V57.9652L203.232 56.7664L202.419 58.1297L205.208 59.8221V70.6818C204.325 71.0109 203.697 71.8571 203.697 72.8678C203.697 73.8081 204.255 74.6073 205.022 74.9833C204.139 80.7658 201.257 89.886 192.261 97.0552C184.289 103.425 182.22 110.595 181.895 115.46C181.872 115.954 181.848 116.424 181.848 116.894V116.918C181.825 120.726 182.732 123.523 183.034 124.392C183.034 124.416 183.057 124.439 183.057 124.463C183.057 124.463 183.057 124.463 183.057 124.486C183.057 124.51 183.08 124.533 183.08 124.533V124.557C183.08 124.58 183.08 124.58 183.104 124.604V124.628V124.651V124.675C183.197 124.91 183.429 125.074 183.685 125.074H185.916V167.455C180.686 169.03 176.572 173.214 175.038 178.503C173.992 172.744 171.691 167.337 168.228 162.636V103.566H170.785C170.947 103.566 171.087 103.519 171.203 103.402L171.226 103.378C171.226 103.378 171.226 103.378 171.25 103.355L171.273 103.331C171.273 103.331 171.273 103.331 171.296 103.308L171.319 103.284L171.342 103.261L171.366 103.237L171.389 103.214C171.389 103.19 171.412 103.19 171.412 103.167C171.412 103.143 171.435 103.143 171.435 103.12C171.459 103.096 171.459 103.096 171.482 103.073C171.505 103.049 171.505 103.049 171.528 103.026C171.552 103.002 171.552 103.002 171.575 102.979C171.598 102.955 171.598 102.932 171.621 102.932C171.645 102.908 171.645 102.885 171.668 102.885C171.691 102.861 171.691 102.838 171.714 102.814C171.738 102.791 171.738 102.767 171.761 102.767C171.784 102.744 171.807 102.72 171.831 102.697C171.854 102.673 171.854 102.65 171.877 102.65C171.9 102.626 171.924 102.579 171.947 102.556C171.947 102.532 171.97 102.532 171.97 102.509C172.063 102.391 172.156 102.25 172.249 102.085C172.249 102.062 172.272 102.062 172.272 102.038C172.295 101.991 172.319 101.944 172.365 101.921C172.388 101.897 172.388 101.874 172.412 101.85C172.435 101.803 172.458 101.756 172.505 101.709C172.528 101.686 172.528 101.662 172.551 101.615C172.574 101.568 172.598 101.521 172.621 101.474C172.644 101.451 172.667 101.404 172.667 101.38C172.691 101.333 172.714 101.286 172.737 101.239C172.76 101.216 172.784 101.169 172.807 101.145C172.83 101.098 172.853 101.051 172.877 101.004C172.9 100.957 172.923 100.934 172.946 100.887C172.97 100.84 172.993 100.793 173.016 100.746C173.039 100.699 173.062 100.675 173.086 100.628C173.109 100.581 173.132 100.534 173.155 100.487C173.179 100.44 173.202 100.393 173.225 100.346C173.248 100.299 173.272 100.252 173.295 100.182C173.318 100.135 173.341 100.087 173.365 100.04C173.388 99.9935 173.411 99.9465 173.434 99.8994C173.458 99.8524 173.481 99.7819 173.504 99.7349C173.527 99.6879 173.551 99.6409 173.574 99.5939C173.597 99.5234 173.644 99.4293 173.667 99.3588C173.69 99.3353 173.69 99.2883 173.713 99.2648C173.76 99.1473 173.806 99.0297 173.853 98.9122C173.899 98.7947 173.946 98.6771 173.992 98.5596C173.992 98.5361 174.015 98.5126 174.015 98.4891C174.062 98.3951 174.085 98.2775 174.132 98.1835C174.132 98.16 174.155 98.1365 174.155 98.0895C174.178 97.9955 174.225 97.878 174.248 97.7839C174.248 97.7604 174.271 97.7369 174.271 97.6899C174.294 97.5724 174.341 97.4784 174.364 97.3608C174.364 97.3373 174.387 97.3138 174.387 97.2668C174.411 97.1493 174.457 97.0317 174.48 96.9142C174.48 96.8907 174.504 96.8672 174.504 96.8437C174.527 96.7732 174.527 96.7262 174.55 96.6557C174.573 96.5851 174.573 96.5146 174.597 96.4676C174.597 96.4441 174.597 96.4441 174.597 96.4206C174.62 96.2796 174.666 96.162 174.69 96.021C174.69 95.9975 174.69 95.974 174.713 95.9505C174.736 95.833 174.759 95.7154 174.783 95.6214C174.783 95.5744 174.806 95.5509 174.806 95.5039C175.55 91.4374 175.387 85.2084 171.319 77.0989C167.74 70.0001 161.743 65.6046 155.932 61.35C148.541 55.9437 141.521 50.7959 139.011 40.5239C139.546 40.1008 139.871 39.4426 139.871 38.714C139.871 37.7032 139.243 36.857 138.36 36.5279V26.632L140.313 27.8308L141.126 26.4675L138.36 24.7751V11.3768H147.379V9.77839H138.453V6.08799H141.452V4.4896H138.453V0H136.873V4.4896H133.874V6.08799H136.873V9.75489H127.947V11.3533H136.873V23.8113L134.897 22.6125L134.083 23.9759L136.873 25.6683V36.5279C135.989 36.857 135.362 37.7032 135.362 38.714C135.362 39.4426 135.711 40.1008 136.222 40.5239C133.712 50.7959 126.692 55.9437 119.301 61.35C113.49 65.6046 107.493 70.0001 103.914 77.0989C99.8461 85.2084 99.6834 91.4374 100.427 95.5039C100.427 95.5509 100.45 95.5744 100.45 95.6214C100.474 95.7389 100.497 95.8565 100.52 95.9505C100.52 95.974 100.52 95.9975 100.543 96.021C100.567 96.162 100.613 96.3031 100.636 96.4206V96.4441C100.66 96.5146 100.66 96.5851 100.683 96.6321C100.706 96.7027 100.706 96.7497 100.729 96.8202C100.729 96.8437 100.753 96.8672 100.753 96.8907C100.776 97.0082 100.822 97.1258 100.846 97.2433C100.846 97.2668 100.869 97.2903 100.869 97.3138C100.892 97.4313 100.939 97.5254 100.962 97.6429C100.962 97.6664 100.985 97.6899 100.985 97.7134C101.008 97.8309 101.055 97.925 101.078 98.0425C101.078 98.066 101.101 98.0895 101.101 98.113C101.148 98.2305 101.171 98.3246 101.217 98.4421C101.217 98.4656 101.241 98.4891 101.241 98.4891C101.334 98.7477 101.427 98.9827 101.52 99.1943C101.52 99.2178 101.543 99.2413 101.543 99.2648C101.589 99.3588 101.613 99.4293 101.659 99.5234C101.682 99.5704 101.706 99.6174 101.729 99.6644C101.752 99.7349 101.775 99.7819 101.799 99.8524C101.822 99.8994 101.845 99.9465 101.868 99.9935C101.892 100.04 101.915 100.087 101.938 100.135C101.961 100.182 101.984 100.229 102.008 100.276C102.031 100.323 102.054 100.37 102.077 100.417C102.101 100.464 102.124 100.511 102.147 100.558C102.17 100.605 102.194 100.628 102.217 100.675C102.24 100.722 102.263 100.769 102.287 100.816C102.31 100.863 102.333 100.887 102.356 100.934C102.38 100.981 102.403 101.028 102.426 101.075C102.449 101.098 102.473 101.145 102.473 101.169C102.496 101.216 102.519 101.263 102.566 101.31C102.589 101.333 102.589 101.357 102.612 101.404C102.635 101.451 102.659 101.498 102.705 101.545C102.728 101.568 102.728 101.592 102.752 101.615C102.775 101.662 102.821 101.709 102.844 101.756C102.868 101.78 102.868 101.803 102.891 101.803C102.914 101.85 102.961 101.897 102.984 101.944C103.1 102.109 103.216 102.274 103.309 102.415C103.333 102.462 103.379 102.509 103.402 102.556L103.426 102.579C103.449 102.603 103.472 102.65 103.495 102.673L103.519 102.697C103.542 102.72 103.565 102.744 103.588 102.791L103.612 102.814C103.635 102.838 103.658 102.861 103.681 102.885L103.704 102.908C103.728 102.932 103.751 102.955 103.751 102.979L103.774 103.002C103.797 103.026 103.821 103.049 103.821 103.073C103.821 103.073 103.821 103.073 103.844 103.096C103.867 103.12 103.867 103.143 103.89 103.143C103.96 103.214 104.007 103.261 104.007 103.284C104.123 103.402 104.286 103.472 104.448 103.472H107.005V162.519C103.542 167.22 101.241 172.65 100.195 178.385C98.6607 173.096 94.5466 168.912 89.3169 167.337V125.051H91.5482C91.8039 125.051 92.0363 124.886 92.1293 124.651V124.628V124.604V124.58C92.1293 124.58 92.1293 124.557 92.1526 124.533V124.51C92.1526 124.486 92.1758 124.463 92.1758 124.463C92.1758 124.463 92.1758 124.463 92.1758 124.439C92.1758 124.416 92.1991 124.392 92.1991 124.369C92.5245 123.499 93.4077 120.726 93.3845 116.894V116.871C93.3845 116.4 93.3612 115.93 93.338 115.437C93.0126 110.548 90.9439 103.378 82.9715 97.0317C73.9763 89.8625 71.0941 80.7658 70.2109 74.9598C71.0012 74.5837 71.5358 73.7846 71.5358 72.8443C71.5358 71.8336 70.9082 70.9874 70.0249 70.6583V60.7624L71.9774 61.9612L72.7909 60.5978L70.0249 58.9054V45.5071H78.9504V43.9087H70.0249V40.2418H73.0233V38.6435H70.0249V34.1539H68.4444V38.6435H65.5622V40.2418H68.5606V43.9087H59.6352V45.5071H68.5606V57.9652L66.5849 56.7664L65.7714 58.1297L68.5606 59.8221V70.6818C67.6774 71.0109 67.0498 71.8571 67.0498 72.8678C67.0498 73.8081 67.6076 74.6073 68.3747 74.9833C67.4914 80.7658 64.6093 89.886 55.6141 97.0552C47.6416 103.425 45.573 110.595 45.2476 115.46C45.2243 115.954 45.2011 116.424 45.2011 116.894V116.918C45.1778 120.608 46.0146 123.335 46.3633 124.298C46.3865 124.345 46.3865 124.369 46.4097 124.392C46.4097 124.416 46.433 124.439 46.433 124.463C46.433 124.463 46.433 124.463 46.433 124.486C46.433 124.51 46.4562 124.533 46.4562 124.533V124.557C46.4562 124.58 46.4562 124.58 46.4795 124.604V124.628V124.651V124.675C46.5724 124.91 46.8049 125.074 47.0606 125.074H49.2919V167.455C42.6443 169.453 37.7865 175.682 37.7865 183.063V257.67H18.6572C16.5421 257.67 14.8221 259.409 14.8221 261.548V288.721C14.8221 289.074 15.101 289.356 15.4497 289.356H18.1459V322.898L7.24476 327.506H7.22152C7.19828 327.529 7.17503 327.529 7.12855 327.553L7.1053 327.576C7.08206 327.6 7.05882 327.6 7.03557 327.623L7.01233 327.647C6.98909 327.67 6.98909 327.694 6.96585 327.694C6.96585 327.717 6.9426 327.717 6.9426 327.741C6.91936 327.764 6.91936 327.788 6.91936 327.811C6.91936 327.835 6.89611 327.835 6.89611 327.858C6.89611 327.882 6.87287 327.905 6.87287 327.929C6.87287 327.952 6.87287 327.952 6.87287 327.976C6.87287 327.999 6.87287 328.023 6.87287 328.07V328.093V332.677L4.96692 335.474V335.498C4.94368 335.521 4.94368 335.545 4.92043 335.568C4.92043 335.568 4.92043 335.592 4.89719 335.592C4.89719 335.615 4.87395 335.662 4.87395 335.686C4.87395 335.686 4.87395 335.686 4.87395 335.709C4.87395 335.756 4.87395 335.78 4.87395 335.827C4.87395 335.827 4.87395 335.827 4.87395 335.85V340.457L3.20043 343.255C3.17719 343.278 3.17719 343.302 3.15394 343.325C3.15394 343.325 3.15394 343.325 3.15394 343.349C3.1307 343.372 3.1307 343.419 3.1307 343.443V343.466C3.1307 343.513 3.1307 343.537 3.1307 343.584V347.909L-9.18825 352.539C-9.18825 352.539 -9.18825 352.539 -9.2115 352.539C-9.23474 352.539 -9.23474 352.563 -9.25798 352.563C-9.28123 352.563 -9.30447 352.586 -9.32771 352.586C-9.35096 352.586 -9.35096 352.61 -9.3742 352.61C-9.39744 352.633 -9.42069 352.633 -9.42069 352.657C-9.44393 352.657 -9.44393 352.68 -9.44393 352.68C-9.46717 352.704 -9.46717 352.704 -9.49042 352.727C-9.49042 352.751 -9.51366 352.751 -9.51366 352.774C-9.5369 352.798 -9.5369 352.821 -9.5369 352.845C-9.5369 352.868 -9.56015 352.868 -9.56015 352.892C-9.56015 352.915 -9.58339 352.939 -9.58339 352.962C-9.58339 352.986 -9.58339 352.986 -9.58339 353.009C-9.58339 353.056 -9.60663 353.08 -9.60663 353.127V357.687L-11.745 360.461C-11.745 360.461 -11.745 360.484 -11.7683 360.484L-11.7915 360.508C-11.8147 360.531 -11.8147 360.555 -11.838 360.578V360.602C-11.8612 360.625 -11.8612 360.672 -11.8612 360.696V360.719C-11.8612 360.743 -11.8612 360.79 -11.8612 360.813C-11.8612 360.813 -11.8612 360.813 -11.8612 360.837V365.42L-13.7439 368.218C-13.7672 368.241 -13.7672 368.265 -13.7904 368.312C-13.7904 368.312 -13.7904 368.335 -13.8137 368.335C-13.8137 368.359 -13.8369 368.406 -13.8369 368.429C-13.8369 368.429 -13.8369 368.429 -13.8369 368.453C-13.8369 368.5 -13.8369 368.523 -13.8369 368.57C-13.8369 368.57 -13.8369 368.57 -13.8369 368.594V373.365C-13.8369 373.718 -13.558 374 -13.2093 374H288.721C289.07 374 289.349 373.718 289.349 373.365L289.256 368.57C289.256 368.594 289.256 368.594 289.256 368.57ZM-10.6758 361.495H286.002V364.997H-10.6758V361.495ZM-8.39798 353.762H283.701V357.264H-8.39798V353.762ZM4.33935 344.195H270.963V347.697H4.33935V344.195ZM6.10584 336.461H269.197V339.964H6.10584V336.461ZM8.15125 328.728H267.198V332.23H8.15125V328.728ZM255.878 322.663H237.516V289.332H255.878V322.663ZM259.225 261.525V288.039H256.994V258.963C258.249 259.127 259.225 260.209 259.225 261.525ZM255.53 288.039H252.95V258.939H255.53V288.039ZM251.485 288.039H248.905V258.939H251.485V288.039ZM247.464 288.039H244.884V258.939H247.464V288.039ZM243.42 288.039H240.84V258.939H243.42V288.039ZM239.399 258.939V288.039H237.539V258.939H239.399ZM236.261 183.039V322.663H232.496V182.687C232.496 178.174 229.823 174.272 226.011 172.509C225.592 172.321 225.174 172.156 224.732 172.015C223.686 171.686 222.594 171.498 221.432 171.498C220.897 171.498 220.363 171.545 219.828 171.615C219.386 171.686 218.968 171.78 218.55 171.874C216.295 172.485 214.319 173.802 212.878 175.588C212.39 176.199 211.972 176.834 211.6 177.539C210.81 179.067 210.368 180.83 210.368 182.663V322.64H206.603V183.016C206.603 178.55 208.532 174.554 211.6 171.804C211.995 171.451 212.437 171.098 212.878 170.793C214.552 169.594 216.481 168.748 218.55 168.325C218.968 168.231 219.386 168.184 219.828 168.137C220.363 168.09 220.874 168.043 221.432 168.043C222.571 168.043 223.663 168.184 224.732 168.419C225.174 168.513 225.592 168.63 226.011 168.771C231.938 170.746 236.261 176.387 236.261 183.039ZM211.646 182.687C211.646 180.947 212.088 179.302 212.878 177.868C214.087 175.658 216.132 173.966 218.55 173.214C218.968 173.096 219.386 172.979 219.828 172.908C220.339 172.814 220.874 172.767 221.432 172.767C222.594 172.767 223.71 172.979 224.732 173.355C225.174 173.519 225.592 173.708 226.011 173.919C229.102 175.588 231.217 178.879 231.217 182.663V254.191H211.646V182.687ZM211.646 255.508H231.217V257.082H211.646V255.508ZM211.646 258.375H231.217V322.663H211.646V258.375ZM211.623 170.158C208.95 172.25 206.951 175.141 205.975 178.503C205.045 175.235 203.116 172.391 200.559 170.323V141.951C200.559 138.848 203.046 136.333 206.091 136.333C209.136 136.333 211.623 138.848 211.623 141.951V170.158ZM221.432 166.773C220.897 166.773 220.363 166.797 219.828 166.844V141.951C219.828 139.084 221.966 136.686 224.732 136.38V167.126C223.663 166.891 222.571 166.773 221.432 166.773ZM183.173 115.531C183.615 108.808 186.939 102.908 193.052 98.0425C201.559 91.2493 204.79 82.8108 205.975 76.8168C207.184 82.8108 210.391 91.2493 218.898 98.0425C224.988 102.908 228.312 108.761 228.777 115.484C228.8 115.742 228.8 116.001 228.823 116.259H183.127C183.15 116.001 183.15 115.766 183.173 115.531ZM184.173 123.781C183.917 123.053 183.429 121.407 183.22 119.174C183.22 119.174 183.22 119.174 183.22 119.151C183.197 118.986 183.197 118.822 183.173 118.634V118.61C183.15 118.445 183.15 118.281 183.15 118.116C183.15 118.093 183.15 118.093 183.15 118.069C183.15 117.905 183.127 117.74 183.127 117.576C183.127 117.552 183.127 117.529 183.127 117.529H228.846C228.846 117.552 228.846 117.576 228.846 117.599C228.846 117.74 228.846 117.881 228.823 118.022C228.823 118.093 228.823 118.163 228.823 118.234C228.823 118.304 228.823 118.398 228.8 118.469C228.8 118.587 228.777 118.704 228.777 118.822C228.777 118.892 228.777 118.939 228.753 119.01C228.753 119.104 228.73 119.174 228.73 119.268C228.73 119.315 228.73 119.339 228.707 119.386C228.684 119.55 228.684 119.691 228.66 119.832C228.66 119.879 228.66 119.903 228.637 119.95C228.614 120.114 228.591 120.279 228.568 120.42C228.568 120.443 228.568 120.443 228.568 120.467C228.544 120.561 228.544 120.632 228.521 120.726C228.521 120.726 228.521 120.726 228.521 120.749C228.498 120.914 228.475 121.078 228.428 121.219C228.428 121.243 228.428 121.266 228.405 121.29C228.382 121.454 228.335 121.595 228.312 121.736C228.289 121.807 228.289 121.877 228.265 121.948C228.265 121.971 228.265 121.971 228.265 121.995C228.242 122.112 228.219 122.23 228.172 122.347C228.172 122.371 228.149 122.394 228.149 122.418C228.126 122.512 228.103 122.63 228.079 122.724C228.079 122.747 228.079 122.771 228.056 122.794C228.033 122.841 228.033 122.888 228.01 122.935C228.01 122.959 227.986 123.006 227.986 123.029C227.963 123.1 227.94 123.147 227.94 123.217C227.94 123.264 227.917 123.288 227.917 123.335C227.917 123.358 227.893 123.405 227.893 123.429C227.87 123.476 227.87 123.546 227.847 123.593C227.847 123.617 227.824 123.64 227.824 123.64C227.8 123.687 227.801 123.734 227.777 123.781H184.173ZM224.732 125.051V135.088C221.269 135.417 218.573 138.378 218.573 141.951V167.032C216.527 167.408 214.598 168.184 212.902 169.265V141.951C212.902 138.143 209.857 135.041 206.091 135.041C202.349 135.041 199.281 138.143 199.281 141.951V169.382C197.77 168.395 196.097 167.643 194.307 167.196V141.951C194.307 138.143 191.262 135.041 187.497 135.041C187.404 135.041 187.311 135.041 187.218 135.041V125.051H224.732ZM187.241 136.357C190.402 136.192 193.029 138.778 193.029 141.975V166.985C192.215 166.867 191.378 166.797 190.518 166.797C189.379 166.797 188.287 166.914 187.218 167.149V136.357H187.241ZM175.712 183.039C175.712 176.387 180.012 170.746 185.963 168.795C186.381 168.654 186.799 168.536 187.241 168.442C188.31 168.207 189.403 168.066 190.541 168.066C191.401 168.066 192.238 168.137 193.052 168.278C193.493 168.348 193.912 168.442 194.33 168.56C196.143 169.053 197.84 169.876 199.304 170.981C199.746 171.31 200.164 171.663 200.583 172.039C203.534 174.789 205.371 178.714 205.371 183.063V322.687H202.233V183.321C202.233 181.112 201.629 179.02 200.559 177.257C200.187 176.622 199.769 176.058 199.281 175.517C197.956 173.99 196.236 172.814 194.307 172.156C193.889 172.015 193.47 171.898 193.029 171.804C192.215 171.615 191.378 171.521 190.518 171.521C189.379 171.521 188.264 171.686 187.218 172.015C186.776 172.156 186.358 172.297 185.939 172.485C181.756 174.295 178.827 178.479 178.827 183.368V240.769C177.804 239.829 176.781 238.912 175.712 238.019V183.039ZM153.189 322.663V291.26C153.189 282.61 146.216 275.558 137.663 275.558C129.109 275.558 122.136 282.61 122.136 291.26V322.663H97.6845V282.445C97.6845 278.12 98.3585 273.983 99.6137 270.081C99.9856 268.906 100.404 267.754 100.892 266.649C102.449 262.959 104.541 259.551 107.052 256.495C107.47 256.001 107.888 255.508 108.33 255.037C109.074 254.215 109.864 253.439 110.677 252.687C111.096 252.311 111.514 251.935 111.956 251.559C118.906 245.635 127.901 242.039 137.686 242.039C147.472 242.039 156.467 245.612 163.417 251.559C163.858 251.935 164.277 252.311 164.695 252.687C165.508 253.439 166.299 254.238 167.042 255.037C167.484 255.508 167.902 256.001 168.321 256.495C170.831 259.527 172.923 262.935 174.48 266.649C174.945 267.778 175.387 268.929 175.759 270.105C177.014 274.007 177.688 278.167 177.688 282.469V322.687H153.189V322.663ZM125.553 296.69H149.796V307.949H125.553V296.69ZM149.796 295.397H125.553V294.668H149.796V295.397ZM125.553 309.242H149.796V309.97H125.553V309.242ZM149.796 293.399H125.553V291.048C125.553 284.279 130.992 278.778 137.686 278.778C144.38 278.778 149.819 284.279 149.819 291.048V293.399H149.796ZM125.553 311.263H149.796V322.687H125.553V311.263ZM151.051 291.048C151.051 283.573 145.054 277.509 137.663 277.509C130.272 277.509 124.275 283.573 124.275 291.048V322.663H123.415V291.26C123.415 283.315 129.807 276.851 137.663 276.851C145.519 276.851 151.911 283.315 151.911 291.26V322.663H151.051V291.048ZM178.92 322.663V282.445C178.92 281.669 178.897 280.87 178.85 280.095C178.594 275.299 177.525 270.645 175.735 266.297C175.34 265.356 174.922 264.44 174.457 263.523C172.83 260.279 170.761 257.247 168.298 254.473C167.879 254.003 167.461 253.557 167.019 253.11C166.95 253.039 166.903 252.992 166.833 252.922C166.136 252.217 165.415 251.535 164.672 250.877C164.253 250.501 163.835 250.148 163.393 249.796C156.118 243.896 147.123 240.699 137.663 240.699C128.203 240.699 119.208 243.896 111.933 249.796C111.514 250.148 111.073 250.501 110.654 250.877C109.91 251.535 109.19 252.217 108.493 252.922C108.423 252.992 108.376 253.039 108.307 253.11C107.865 253.557 107.447 254.003 107.028 254.473C104.564 257.223 102.496 260.279 100.869 263.523C100.404 264.44 99.9856 265.356 99.5904 266.297C97.8007 270.645 96.7315 275.276 96.4758 280.095C96.4293 280.87 96.4061 281.646 96.4061 282.445V322.663H94.7093V283.103C94.7093 280.847 94.872 278.637 95.2207 276.475C95.5228 274.524 95.9412 272.62 96.4991 270.763C97.2893 268.06 98.3353 265.45 99.6137 263.006C100.009 262.23 100.427 261.478 100.892 260.726C102.635 257.811 104.704 255.108 107.052 252.687C107.47 252.264 107.888 251.841 108.33 251.441C109.097 250.736 109.864 250.031 110.677 249.373C111.096 249.02 111.514 248.691 111.956 248.362C119.138 242.908 128.04 239.688 137.686 239.688C147.332 239.688 156.234 242.908 163.417 248.362C163.858 248.691 164.277 249.02 164.695 249.373C165.508 250.031 166.275 250.712 167.042 251.441C167.484 251.841 167.902 252.264 168.321 252.687C170.668 255.108 172.737 257.811 174.48 260.726C174.922 261.478 175.34 262.23 175.759 263.006C177.037 265.474 178.083 268.06 178.873 270.763C179.408 272.62 179.85 274.524 180.152 276.475C180.477 278.637 180.663 280.847 180.663 283.103V322.663H178.92ZM180.105 270.504C179.733 269.235 179.315 267.966 178.827 266.743C177.967 264.51 176.921 262.348 175.712 260.303C175.317 259.621 174.875 258.939 174.434 258.258C172.83 255.837 170.994 253.58 168.925 251.488C168.716 251.276 168.484 251.065 168.274 250.83C167.856 250.43 167.438 250.031 166.996 249.655C166.229 248.973 165.462 248.315 164.648 247.68C164.23 247.351 163.812 247.045 163.37 246.716C155.909 241.31 147.007 238.372 137.64 238.372C128.273 238.372 119.37 241.287 111.909 246.716C111.491 247.022 111.049 247.351 110.631 247.68C109.841 248.315 109.05 248.973 108.283 249.655C107.865 250.031 107.423 250.43 107.005 250.83C106.796 251.041 106.563 251.253 106.354 251.488C104.286 253.58 102.426 255.86 100.846 258.258C100.404 258.916 99.9856 259.598 99.5672 260.303C98.3585 262.371 97.3126 264.534 96.4526 266.743C95.9645 267.989 95.5461 269.235 95.1742 270.504C94.012 274.547 93.4077 278.778 93.4077 283.103V322.663H81.7163V285.031C81.7163 275.393 84.1104 266.32 88.3407 258.375C88.5731 257.952 88.8055 257.505 89.038 257.082C89.3401 256.542 89.6423 256.025 89.9677 255.508C90.2234 255.084 90.5023 254.638 90.7812 254.215C92.1293 252.123 93.5937 250.148 95.1974 248.268C95.6158 247.774 96.0342 247.304 96.4758 246.81C97.4753 245.706 98.5212 244.648 99.5904 243.637C100.009 243.238 100.427 242.861 100.869 242.485C102.821 240.769 104.867 239.171 107.028 237.737C107.447 237.455 107.865 237.197 108.307 236.914C109.074 236.444 109.864 235.974 110.654 235.528C111.073 235.293 111.491 235.058 111.933 234.846C119.649 230.779 128.389 228.499 137.663 228.499C146.937 228.499 155.677 230.803 163.393 234.846C163.812 235.081 164.253 235.293 164.672 235.528C165.462 235.974 166.252 236.444 167.019 236.914C167.438 237.173 167.879 237.455 168.298 237.737C170.459 239.171 172.528 240.769 174.457 242.485C174.875 242.861 175.317 243.261 175.735 243.637C176.828 244.648 177.851 245.706 178.85 246.81C179.292 247.281 179.71 247.774 180.128 248.268C181.732 250.148 183.197 252.146 184.545 254.215C184.824 254.638 185.079 255.061 185.358 255.508C185.684 256.025 185.986 256.565 186.288 257.082C186.52 257.505 186.753 257.929 186.985 258.375C191.216 266.32 193.61 275.393 193.61 285.031V322.663H181.918V283.103C181.895 278.778 181.291 274.547 180.105 270.504ZM190.356 262.512C189.774 261.102 189.124 259.715 188.426 258.352C188.194 257.929 187.985 257.482 187.752 257.059C187.45 256.518 187.171 256.001 186.846 255.484C186.59 255.061 186.334 254.614 186.079 254.191C184.336 251.394 182.337 248.738 180.128 246.246C179.71 245.776 179.292 245.33 178.85 244.883C178.594 244.624 178.362 244.366 178.106 244.107C177.339 243.332 176.526 242.556 175.712 241.827C175.294 241.451 174.875 241.075 174.434 240.722C172.481 239.053 170.413 237.526 168.274 236.139C167.856 235.88 167.438 235.598 166.996 235.34C166.229 234.869 165.439 234.423 164.648 234C164.23 233.765 163.812 233.553 163.37 233.342C162.231 232.754 161.069 232.213 159.907 231.72C152.864 228.711 145.356 227.183 137.64 227.183C129.923 227.183 122.439 228.711 115.373 231.72C114.187 232.213 113.048 232.777 111.909 233.342C111.491 233.553 111.049 233.788 110.631 234C109.841 234.423 109.05 234.869 108.283 235.34C107.865 235.598 107.423 235.857 107.005 236.139C104.843 237.526 102.798 239.053 100.846 240.722C100.427 241.098 99.9856 241.451 99.5672 241.827C98.7537 242.556 97.9634 243.308 97.1731 244.107C96.9174 244.366 96.685 244.624 96.4293 244.883C95.9877 245.33 95.5693 245.8 95.1509 246.246C92.9428 248.738 90.9439 251.371 89.2007 254.191C88.945 254.614 88.6661 255.037 88.4336 255.484C88.1315 256.001 87.8293 256.542 87.5271 257.059C87.2947 257.482 87.0623 257.905 86.8531 258.352C86.1558 259.715 85.505 261.078 84.9239 262.512C81.9488 269.634 80.4379 277.227 80.4379 285.031V322.663H78.346V285.689C78.346 275.863 80.6936 266.579 84.8542 258.375C85.0634 257.952 85.2958 257.505 85.5282 257.082C85.8071 256.542 86.1093 256.025 86.4115 255.508C86.6671 255.084 86.9228 254.638 87.1785 254.215C89.4796 250.454 92.1758 246.951 95.2207 243.802C95.6391 243.379 96.0574 242.955 96.4991 242.532C97.4985 241.545 98.5445 240.605 99.6137 239.688C100.032 239.336 100.45 238.983 100.892 238.63C102.844 237.056 104.913 235.598 107.052 234.305C107.47 234.047 107.888 233.788 108.33 233.553C109.097 233.107 109.887 232.683 110.677 232.26C111.096 232.049 111.514 231.837 111.956 231.626C119.742 227.818 128.482 225.679 137.686 225.679C146.891 225.679 155.63 227.818 163.417 231.626C163.835 231.837 164.277 232.049 164.695 232.26C165.485 232.66 166.275 233.107 167.042 233.553C167.461 233.788 167.902 234.047 168.321 234.305C170.459 235.622 172.528 237.079 174.48 238.63C174.899 238.983 175.34 239.312 175.759 239.688C176.828 240.605 177.874 241.545 178.873 242.532C179.292 242.955 179.733 243.379 180.152 243.802C183.197 246.951 185.893 250.454 188.194 254.215C188.45 254.638 188.705 255.061 188.961 255.508C189.263 256.025 189.565 256.565 189.844 257.082C190.077 257.505 190.286 257.929 190.518 258.375C194.679 266.579 197.026 275.863 197.026 285.689V322.663H194.888V285.031C194.865 277.227 193.354 269.658 190.356 262.512ZM74.3714 322.663V258.375H83.4131C82.8552 259.503 82.3206 260.655 81.8325 261.831C78.6714 269.376 77.0677 277.415 77.0677 285.689V322.663H74.3714ZM74.3714 183.321C74.3714 182.334 74.5109 181.37 74.7666 180.454C75.0455 179.443 75.4871 178.479 76.045 177.609C77.2304 175.753 78.9736 174.295 81.019 173.496C81.4374 173.331 81.8558 173.19 82.2974 173.096C83.0877 172.885 83.9477 172.791 84.8077 172.791C85.9698 172.791 87.0623 172.979 88.1082 173.331C88.5499 173.472 88.9682 173.66 89.3866 173.849C92.8499 175.564 95.2439 179.161 95.2439 183.321V241.945C95.1045 242.086 94.9883 242.203 94.8488 242.344C91.2926 245.941 88.2244 249.913 85.6909 254.215H74.4179V183.321H74.3714ZM84.0639 257.082H74.3714V255.508H84.9239C84.6217 256.025 84.3428 256.542 84.0639 257.082ZM110.654 173.543C110.91 172.908 111.212 172.297 111.514 171.686C111.909 170.91 112.328 170.158 112.793 169.429C115.512 165.034 119.324 161.438 123.856 158.969C124.275 158.734 124.693 158.523 125.135 158.311C126.948 157.442 128.877 156.736 130.876 156.266C131.294 156.172 131.713 156.078 132.154 155.984C133.944 155.632 135.803 155.444 137.686 155.444C139.569 155.444 141.428 155.632 143.218 155.984C143.636 156.078 144.078 156.149 144.496 156.266C146.495 156.76 148.425 157.442 150.238 158.311C150.656 158.523 151.098 158.734 151.516 158.969C156.048 161.414 159.86 165.034 162.58 169.429C163.045 170.158 163.463 170.91 163.858 171.686C164.16 172.297 164.462 172.932 164.718 173.566C164.904 173.99 165.067 174.413 165.23 174.859C166.415 178.08 167.042 181.535 167.042 185.155V232.096C166.275 231.673 165.485 231.25 164.695 230.85V184.614C164.695 181.159 164.067 177.868 162.905 174.812C162.742 174.389 162.557 173.943 162.371 173.519C160.093 168.348 156.281 164.047 151.516 161.155C151.098 160.897 150.679 160.662 150.238 160.427C148.425 159.463 146.519 158.711 144.496 158.17C144.078 158.053 143.66 157.959 143.218 157.865C141.428 157.489 139.592 157.277 137.686 157.277C135.78 157.277 133.944 157.465 132.154 157.865C131.736 157.959 131.294 158.053 130.876 158.17C128.854 158.711 126.925 159.463 125.135 160.427C124.693 160.662 124.275 160.897 123.856 161.155C119.092 164.047 115.28 168.348 113.002 173.519C112.816 173.943 112.63 174.366 112.467 174.812C111.305 177.845 110.677 181.159 110.677 184.614V230.803C109.887 231.203 109.097 231.626 108.33 232.049V185.131C108.33 181.511 108.981 178.033 110.143 174.836C110.306 174.389 110.468 173.966 110.654 173.543ZM114.396 173.543C116.488 169.077 119.766 165.316 123.856 162.683C124.275 162.425 124.693 162.166 125.135 161.908C126.925 160.897 128.854 160.074 130.876 159.51C131.294 159.393 131.713 159.298 132.154 159.204C133.944 158.805 135.78 158.593 137.686 158.593C139.592 158.593 141.428 158.805 143.218 159.204C143.636 159.298 144.078 159.416 144.496 159.51C146.519 160.074 148.448 160.873 150.238 161.908C150.679 162.143 151.098 162.401 151.516 162.683C155.584 165.316 158.884 169.077 160.976 173.543C161.162 173.966 161.371 174.389 161.534 174.836C162.766 177.868 163.44 181.159 163.44 184.638V230.215C162.742 229.886 162.022 229.557 161.301 229.252C153.84 226.055 145.891 224.433 137.709 224.433C129.528 224.433 121.602 226.055 114.117 229.252C113.397 229.557 112.676 229.886 111.979 230.215V184.614C111.979 181.159 112.653 177.845 113.885 174.812C114.001 174.389 114.187 173.966 114.396 173.543ZM200.954 254.215H189.681C187.125 249.913 184.08 245.941 180.524 242.344C180.384 242.203 180.268 242.086 180.128 241.945V183.321C180.128 179.161 182.523 175.564 185.986 173.849C186.404 173.637 186.823 173.472 187.264 173.331C188.31 172.979 189.403 172.791 190.565 172.791C191.425 172.791 192.261 172.908 193.075 173.096C193.517 173.214 193.935 173.331 194.353 173.496C196.422 174.319 198.142 175.753 199.327 177.609C199.885 178.479 200.304 179.443 200.606 180.454C200.861 181.37 201.001 182.334 201.001 183.321V254.215H200.954ZM190.425 255.508H200.978V257.082H191.285C190.983 256.542 190.704 256.025 190.425 255.508ZM193.493 261.831C193.005 260.655 192.471 259.503 191.913 258.375H200.954V322.663H198.258V285.689C198.258 277.415 196.654 269.376 193.493 261.831ZM105.053 77.6865C108.493 70.8698 114.35 66.5448 120.045 62.3843C127.273 57.0955 134.711 51.6421 137.407 40.994C137.477 40.994 137.57 41.0175 137.663 41.0175C137.756 41.0175 137.826 41.0175 137.919 40.994C140.615 51.6186 148.053 57.072 155.281 62.3843C160.976 66.5448 166.833 70.8698 170.273 77.6865C174.015 85.1378 174.341 90.8967 173.737 94.7517H101.613C101.008 90.8967 101.31 85.1613 105.053 77.6865ZM104.774 102.274C104.309 101.733 103.054 100.064 102.194 97.2903C102.194 97.2668 102.194 97.2668 102.194 97.2433C102.147 97.0553 102.077 96.8907 102.031 96.7027C102.031 96.6792 102.008 96.6321 102.008 96.6086C101.961 96.4206 101.915 96.2326 101.868 96.021H173.504C173.458 96.209 173.411 96.3971 173.365 96.5851C173.365 96.6086 173.341 96.6556 173.341 96.6792C173.295 96.8672 173.248 97.0553 173.179 97.2198C173.179 97.2433 173.179 97.2433 173.155 97.2668C172.295 100.04 171.017 101.709 170.575 102.25H104.774V102.274ZM108.33 103.566H167.019V160.991C166.252 160.051 165.439 159.157 164.579 158.288C164.323 158.029 164.067 157.794 163.812 157.536V124.722C163.812 120.585 160.767 117.223 157.001 117.223C153.236 117.223 150.191 120.585 150.191 124.722V149.144C148.332 148.486 146.402 147.969 144.45 147.616V124.722C144.45 120.585 141.405 117.223 137.64 117.223C133.898 117.223 130.829 120.585 130.829 124.722V147.616C128.877 147.969 126.948 148.486 125.088 149.144V124.722C125.088 120.585 122.043 117.223 118.278 117.223C114.513 117.223 111.468 120.585 111.468 124.722V157.536C111.212 157.771 110.956 158.029 110.701 158.288C109.841 159.157 109.027 160.051 108.26 160.991V103.566H108.33ZM162.533 156.36C159.21 153.446 155.491 151.189 151.469 149.614V124.722C151.469 121.29 153.957 118.516 157.001 118.516C160.046 118.516 162.533 121.313 162.533 124.722V156.36ZM143.195 147.405C141.382 147.146 139.522 147.005 137.663 147.005C135.803 147.005 133.944 147.146 132.131 147.405V124.722C132.131 121.29 134.618 118.516 137.663 118.516C140.708 118.516 143.195 121.313 143.195 124.722V147.405ZM123.856 149.591C119.859 151.165 116.116 153.446 112.793 156.337V124.722C112.793 121.29 115.28 118.516 118.325 118.516C121.369 118.516 123.856 121.313 123.856 124.722V149.591ZM100.869 185.484C100.869 177.868 103.147 170.793 107.028 164.893C107.423 164.282 107.865 163.671 108.307 163.083C109.283 161.767 110.352 160.521 111.491 159.345C111.909 158.922 112.328 158.499 112.769 158.1C115.977 155.114 119.719 152.693 123.833 151.001C124.252 150.836 124.67 150.672 125.112 150.507C126.971 149.826 128.877 149.285 130.853 148.909C131.271 148.838 131.689 148.744 132.131 148.697C133.944 148.415 135.78 148.274 137.663 148.274C139.546 148.274 141.382 148.415 143.195 148.697C143.613 148.768 144.055 148.838 144.473 148.909C146.449 149.285 148.378 149.826 150.214 150.507C150.633 150.672 151.074 150.836 151.493 151.001C155.607 152.693 159.349 155.114 162.557 158.1C162.998 158.499 163.417 158.922 163.835 159.345C164.974 160.521 166.043 161.767 167.019 163.083C167.461 163.671 167.879 164.282 168.298 164.893C172.202 170.793 174.457 177.892 174.457 185.484V236.985C172.481 235.457 170.436 234.047 168.298 232.801V185.131C168.298 181.511 167.67 178.056 166.554 174.836C166.392 174.413 166.252 173.966 166.066 173.543C165.439 171.968 164.695 170.464 163.835 169.053C163.44 168.395 163.021 167.737 162.557 167.126C159.698 163.106 155.909 159.792 151.493 157.536C151.074 157.324 150.656 157.112 150.214 156.924C148.378 156.102 146.472 155.444 144.473 154.973C144.055 154.879 143.636 154.785 143.195 154.715C141.405 154.386 139.546 154.198 137.663 154.198C135.78 154.198 133.921 154.362 132.131 154.715C131.713 154.785 131.271 154.879 130.853 154.973C128.854 155.444 126.925 156.078 125.112 156.924C124.693 157.112 124.252 157.324 123.833 157.536C119.417 159.792 115.628 163.106 112.769 167.126C112.328 167.761 111.909 168.395 111.491 169.053C110.631 170.487 109.887 171.992 109.26 173.543C109.097 173.966 108.934 174.389 108.772 174.836C107.633 178.056 107.028 181.535 107.028 185.131V232.801C104.89 234.07 102.821 235.457 100.869 236.985V185.484ZM99.6137 183.039V237.996C98.5445 238.865 97.4985 239.782 96.4991 240.746V183.321C96.4991 178.432 93.5704 174.248 89.3866 172.438C88.9682 172.25 88.5499 172.109 88.1082 171.968C87.0623 171.663 85.9466 171.474 84.8077 171.474C83.9477 171.474 83.1109 171.568 82.2974 171.757C81.8558 171.851 81.4374 171.968 81.019 172.109C79.0898 172.791 77.3698 173.943 76.045 175.47C75.5801 176.011 75.1385 176.599 74.7666 177.21C73.7206 178.996 73.0931 181.065 73.0931 183.274V322.616H69.9785V182.992C69.9785 178.644 71.8147 174.718 74.7666 171.968C75.1617 171.592 75.6033 171.239 76.045 170.91C77.5325 169.806 79.206 168.983 81.019 168.489C81.4374 168.372 81.8558 168.278 82.2974 168.207C83.1109 168.066 83.9477 167.996 84.8077 167.996C85.9466 167.996 87.039 168.137 88.1082 168.372C88.5499 168.466 88.9682 168.583 89.3866 168.724C95.3137 170.746 99.6137 176.387 99.6137 183.039ZM74.7666 170.323C72.2098 172.391 70.2806 175.235 69.3509 178.503C68.3979 175.141 66.3757 172.227 63.7028 170.158V141.951C63.7028 138.848 66.1898 136.333 69.2347 136.333C72.2795 136.333 74.7666 138.848 74.7666 141.951V170.323ZM84.7844 166.773C83.9244 166.773 83.0877 166.844 82.2742 166.961V141.951C82.2742 138.848 84.7612 136.333 87.8061 136.333C87.899 136.333 87.992 136.333 88.085 136.333V167.126C87.0158 166.891 85.9234 166.773 84.7844 166.773ZM46.526 115.484C46.9908 108.785 50.3146 102.908 56.4044 98.0425C64.9114 91.2493 68.1422 82.8108 69.3276 76.8168C70.5363 82.8108 73.7439 91.2493 82.2509 98.0425C88.3407 102.908 91.6645 108.761 92.1293 115.484C92.1526 115.742 92.1526 116.001 92.1758 116.259H46.5027C46.5027 116.001 46.5027 115.742 46.526 115.484ZM47.5254 123.781C47.5254 123.758 47.5022 123.758 47.5022 123.734C47.5022 123.711 47.4789 123.687 47.4789 123.664C47.4789 123.64 47.4557 123.617 47.4557 123.57C47.4324 123.523 47.4324 123.476 47.4092 123.429C47.4092 123.405 47.386 123.358 47.386 123.311C47.386 123.288 47.3627 123.264 47.3627 123.241C47.3395 123.17 47.3162 123.1 47.293 123.029C47.293 123.006 47.2697 122.982 47.2697 122.959C47.2465 122.912 47.2465 122.865 47.2233 122.794V122.771C47.2 122.677 47.1768 122.559 47.1303 122.441C47.1303 122.418 47.1303 122.394 47.107 122.371C47.0838 122.253 47.0373 122.136 47.0141 121.995V121.971C46.9676 121.76 46.9211 121.525 46.8746 121.29C46.8746 121.266 46.8746 121.266 46.8746 121.243C46.8281 121.008 46.7816 120.749 46.7351 120.49V120.467C46.7119 120.302 46.6887 120.138 46.6654 119.973C46.6654 119.95 46.6654 119.903 46.6422 119.879C46.6189 119.715 46.5957 119.55 46.5957 119.386C46.5957 119.362 46.5957 119.339 46.5957 119.315C46.5957 119.221 46.5724 119.127 46.5724 119.057C46.5724 119.01 46.5724 118.939 46.5492 118.892C46.5492 118.775 46.526 118.634 46.526 118.492C46.526 118.422 46.526 118.351 46.5027 118.257C46.5027 118.187 46.5027 118.116 46.5027 118.022C46.5027 117.881 46.5027 117.764 46.4795 117.623C46.4795 117.599 46.4795 117.576 46.4795 117.552H92.1991C92.1991 117.576 92.1991 117.599 92.1991 117.646C92.1991 117.787 92.1991 117.905 92.1758 118.046C92.1758 118.116 92.1758 118.21 92.1526 118.281C92.1526 118.351 92.1526 118.422 92.1293 118.492C92.1293 118.634 92.1061 118.775 92.1061 118.892C92.1061 118.939 92.1061 118.986 92.0828 119.057C92.0828 119.151 92.0596 119.245 92.0596 119.315C92.0596 119.339 92.0596 119.362 92.0596 119.386C92.0363 119.55 92.0131 119.738 91.9899 119.903C91.9899 119.926 91.9899 119.973 91.9899 119.997C91.9666 120.161 91.9434 120.326 91.9201 120.49V120.514C91.8736 120.773 91.8272 121.031 91.7807 121.266C91.7807 121.29 91.7807 121.313 91.7807 121.313C91.7574 121.478 91.7109 121.619 91.6877 121.76C91.6645 121.83 91.6645 121.901 91.6412 121.971C91.6412 121.995 91.6412 121.995 91.6412 122.018C91.618 122.136 91.5947 122.253 91.5482 122.371C91.5482 122.394 91.5482 122.418 91.525 122.441C91.5018 122.559 91.4785 122.653 91.4553 122.747C91.4553 122.771 91.4553 122.771 91.432 122.794C91.4088 122.841 91.4088 122.888 91.3855 122.935C91.3855 122.959 91.3623 123.006 91.3623 123.029C91.3391 123.1 91.3158 123.147 91.3158 123.217C91.3158 123.264 91.2926 123.288 91.2926 123.335C91.2926 123.358 91.2693 123.405 91.2693 123.429C91.2461 123.476 91.2461 123.546 91.2228 123.593C91.2228 123.617 91.1996 123.64 91.1996 123.64C91.1763 123.687 91.1763 123.734 91.1531 123.781H47.5254ZM88.085 125.051V135.064C87.992 135.064 87.899 135.064 87.8061 135.064C84.0639 135.064 80.9958 138.167 80.9958 141.975V167.243C79.206 167.69 77.5093 168.419 76.0217 169.429V141.951C76.0217 138.143 72.9768 135.041 69.2114 135.041C65.4693 135.041 62.4011 138.143 62.4011 141.951V169.265C60.7044 168.184 58.7752 167.408 56.7298 167.032V141.951C56.7298 138.355 54.0103 135.417 50.5703 135.088V125.051H88.085ZM50.5935 136.38C53.3362 136.709 55.4979 139.084 55.4979 141.951V166.844C54.9633 166.797 54.4287 166.773 53.8941 166.773C52.7552 166.773 51.6627 166.891 50.5935 167.126V136.38ZM39.0881 183.039C39.0881 176.387 43.3881 170.746 49.3384 168.795C49.7568 168.654 50.1752 168.536 50.6168 168.442C51.686 168.207 52.7784 168.066 53.9173 168.066C54.4519 168.066 54.9865 168.09 55.5211 168.16C55.9395 168.207 56.3811 168.278 56.7995 168.348C58.8681 168.771 60.7973 169.618 62.4709 170.816C62.9125 171.122 63.3309 171.474 63.7492 171.827C66.8174 174.577 68.7466 178.573 68.7466 183.039V322.663H64.9811V182.687C64.9811 180.83 64.5395 179.09 63.7492 177.562C63.4006 176.857 62.959 176.223 62.4709 175.611C61.0298 173.825 59.0541 172.509 56.7995 171.898C56.3811 171.78 55.9627 171.686 55.5211 171.639C55.0098 171.568 54.4752 171.521 53.9173 171.521C52.7784 171.521 51.6627 171.71 50.6168 172.039C50.1752 172.18 49.7568 172.344 49.3384 172.532C45.5265 174.295 42.8535 178.197 42.8535 182.71V322.687H39.0881V183.039ZM63.6795 257.082H44.1087V255.508H63.6795V257.082ZM63.6795 254.215H44.1087V182.687C44.1087 178.902 46.2238 175.611 49.3152 173.943C49.7335 173.731 50.1519 173.543 50.5935 173.378C51.6162 173.002 52.7319 172.791 53.8941 172.791C54.4287 172.791 54.9633 172.838 55.4979 172.932C55.9395 173.002 56.3579 173.096 56.7763 173.237C59.1936 173.99 61.239 175.682 62.4476 177.892C63.2379 179.325 63.6795 180.947 63.6795 182.71V254.215ZM44.1087 258.375H63.6795V322.663H44.1087V258.375ZM37.8097 288.039H35.9503V258.939H37.8097V288.039ZM34.4859 288.039H31.9059V258.939H34.4859V288.039ZM30.4416 288.039H27.8616V258.939H30.4416V288.039ZM26.3973 288.039H23.8172V258.939H26.3973V288.039ZM22.3762 288.039H19.7962V258.939H22.3762V288.039ZM16.1237 288.039V261.525C16.1237 260.209 17.0999 259.127 18.3551 258.963V288.039H16.1237ZM37.8097 289.332V322.663H19.4475V289.332H37.8097ZM18.9361 323.956H256.39L264.664 327.459H10.6615L18.9361 323.956ZM7.84909 333.523H267.5L268.639 335.192H6.68692L7.84909 333.523ZM5.85017 341.257H269.499L270.498 342.925H4.8507L5.85017 341.257ZM3.828 348.99H271.498L280.818 352.492H-5.49257L3.828 348.99ZM-8.72339 358.557H284.049L285.328 360.226H-10.0018L-8.72339 358.557ZM-10.978 366.29H286.281L287.396 367.959H-12.0937L-10.978 366.29ZM288.001 372.731H-12.6515V369.228H288.001V372.731Z" fill="#6596C9"/>
<path d="M194.284 187.317C194.191 187.012 194.051 186.73 193.889 186.471C193.656 186.095 193.377 185.789 193.052 185.507C192.401 184.967 191.564 184.661 190.681 184.661H189.17C188.473 184.661 187.822 184.849 187.264 185.178C186.753 185.484 186.311 185.883 185.986 186.377C185.591 186.988 185.358 187.717 185.358 188.516V232.495C185.358 232.848 185.637 233.13 185.986 233.13H193.842C194.191 233.13 194.47 232.848 194.47 232.495V188.54C194.47 188.281 194.447 188.022 194.4 187.787C194.354 187.623 194.33 187.482 194.284 187.317ZM193.191 224.127H190.518V221.424H193.191V224.127ZM193.191 220.155H190.518V217.452H193.191V220.155ZM193.191 216.182H190.518V213.479H193.191V216.182ZM193.191 212.21H190.518V209.507H193.191V212.21ZM193.191 208.237H190.518V205.534H193.191V208.237ZM193.191 204.241H190.518V201.538H193.191V204.241ZM193.191 200.269H190.518V197.566H193.191V200.269ZM193.191 196.296H190.518V193.593H193.191V196.296ZM193.191 192.324H190.518V189.621H193.191V192.324ZM186.59 193.593H189.263V196.296H186.59V193.593ZM186.59 197.566H189.263V200.269H186.59V197.566ZM186.59 201.538H189.263V204.241H186.59V201.538ZM186.59 205.534H189.263V208.237H186.59V205.534ZM186.59 209.507H189.263V212.21H186.59V209.507ZM186.59 213.479H189.263V216.182H186.59V213.479ZM186.59 217.452H189.263V220.155H186.59V217.452ZM186.59 221.448H189.263V224.151H186.59V221.448ZM186.59 189.621H189.263V192.324H186.59V189.621ZM186.59 225.42H189.263V228.123H186.59V225.42ZM190.518 228.123V225.42H193.191V228.123H190.518ZM192.192 186.495C192.61 186.824 192.936 187.27 193.098 187.787C193.145 187.975 193.191 188.163 193.191 188.352H190.542V185.977H190.658C191.239 185.954 191.75 186.166 192.192 186.495ZM187.613 186.495C188.031 186.166 188.566 185.977 189.147 185.977H189.263V188.352H186.614C186.637 188.163 186.66 187.975 186.707 187.787C186.869 187.247 187.195 186.8 187.613 186.495ZM186.59 229.393H189.263V231.884H186.59V229.393ZM193.191 231.884H190.518V229.393H193.191V231.884Z" fill="#6596C9"/>
<path d="M57.869 186.494C57.59 186.024 57.1949 185.625 56.7533 185.343C56.3814 185.084 55.9398 184.896 55.4749 184.802C55.196 184.732 54.9171 184.708 54.6381 184.708H53.1273C52.1511 184.708 51.2679 185.084 50.5938 185.695C50.0592 186.189 49.6641 186.824 49.4549 187.552C49.3619 187.881 49.3154 188.21 49.3154 188.563V232.542C49.3154 232.895 49.5943 233.177 49.943 233.177H57.7992C58.1479 233.177 58.4268 232.895 58.4268 232.542V188.539C58.4268 188.281 58.4036 188.022 58.3571 187.787C58.2873 187.317 58.1246 186.871 57.869 186.494ZM57.1949 228.123H54.5219V225.42H57.1949V228.123ZM57.1949 192.324H54.5219V189.621H57.1949V192.324ZM57.1949 196.296H54.5219V193.593H57.1949V196.296ZM57.1949 200.269H54.5219V197.566H57.1949V200.269ZM57.1949 204.241H54.5219V201.538H57.1949V204.241ZM57.1949 208.237H54.5219V205.534H57.1949V208.237ZM57.1949 212.21H54.5219V209.507H57.1949V212.21ZM57.1949 216.182H54.5219V213.479H57.1949V216.182ZM57.1949 220.155H54.5219V217.452H57.1949V220.155ZM57.1949 224.127H54.5219V221.424H57.1949V224.127ZM50.5938 221.447H53.2668V224.151H50.5938V221.447ZM50.5938 217.452H53.2668V220.155H50.5938V217.452ZM50.5938 213.479H53.2668V216.182H50.5938V213.479ZM50.5938 209.507H53.2668V212.21H50.5938V209.507ZM50.5938 205.534H53.2668V208.237H50.5938V205.534ZM50.5938 201.538H53.2668V204.241H50.5938V201.538ZM50.5938 197.566H53.2668V200.269H50.5938V197.566ZM50.5938 193.593H53.2668V196.296H50.5938V193.593ZM50.5938 189.621H53.2668V192.324H50.5938V189.621ZM50.5938 225.42H53.2668V228.123H50.5938V225.42ZM55.4982 186.118C55.7538 186.212 55.9863 186.33 56.1955 186.494C56.4279 186.659 56.6138 186.871 56.7765 187.106C56.916 187.317 57.009 187.529 57.1019 187.764C57.1484 187.952 57.1949 188.14 57.1949 188.328H54.5452V185.954H54.6614C54.9403 185.954 55.2192 186.024 55.4982 186.118ZM53.1273 185.954H53.2435V188.328H50.5938C50.6171 188.14 50.6403 187.952 50.6868 187.764C50.8495 187.247 51.1749 186.8 51.5933 186.471C52.0349 186.165 52.5695 185.954 53.1273 185.954ZM50.5938 229.392H53.2668V231.884H50.5938V229.392ZM57.1949 231.884H54.5219V229.392H57.1949V231.884Z" fill="#6596C9"/>
<path d="M80.228 233.153H88.0842C88.4328 233.153 88.7118 232.871 88.7118 232.519V188.54C88.7118 188.281 88.6885 188.022 88.642 187.787C88.5491 187.294 88.3399 186.824 88.0842 186.424C87.4101 185.39 86.2247 184.685 84.8999 184.685H83.3891C83.0172 184.685 82.6453 184.732 82.2966 184.849C81.8318 184.99 81.3901 185.225 81.0182 185.531C80.6928 185.813 80.3907 186.118 80.1582 186.495C79.9258 186.871 79.7399 187.317 79.6469 187.787C79.6004 188.022 79.5771 188.281 79.5771 188.54V232.519C79.5771 232.871 79.8793 233.153 80.228 233.153ZM80.8555 225.42H83.5285V228.123H80.8555V225.42ZM80.8555 221.448H83.5285V224.151H80.8555V221.448ZM80.8555 217.452H83.5285V220.155H80.8555V217.452ZM80.8555 213.479H83.5285V216.182H80.8555V213.479ZM80.8555 209.507H83.5285V212.21H80.8555V209.507ZM80.8555 205.534H83.5285V208.237H80.8555V205.534ZM80.8555 201.538H83.5285V204.241H80.8555V201.538ZM80.8555 197.566H83.5285V200.269H80.8555V197.566ZM80.8555 193.593H83.5285V196.296H80.8555V193.593ZM80.8555 189.621H83.5285V192.324H80.8555V189.621ZM87.4566 224.127H84.7837V221.424H87.4566V224.127ZM87.4566 220.155H84.7837V217.452H87.4566V220.155ZM87.4566 216.182H84.7837V213.479H87.4566V216.182ZM87.4566 212.21H84.7837V209.507H87.4566V212.21ZM87.4566 208.237H84.7837V205.534H87.4566V208.237ZM87.4566 204.241H84.7837V201.538H87.4566V204.241ZM87.4566 200.269H84.7837V197.566H87.4566V200.269ZM87.4566 196.296H84.7837V193.593H87.4566V196.296ZM87.4566 192.324H84.7837V189.621H87.4566V192.324ZM84.7837 228.123V225.42H87.4566V228.123H84.7837ZM80.8555 229.393H83.5285V231.884H80.8555V229.393ZM87.4566 231.884H84.7837V229.393H87.4566V231.884ZM86.4339 186.495C86.8523 186.824 87.1777 187.27 87.3404 187.787C87.3869 187.975 87.4334 188.163 87.4334 188.351H84.7837V185.977H84.8999C85.481 185.954 86.0155 186.165 86.4339 186.495ZM81.1112 187.435C81.2972 187.059 81.5528 186.73 81.8782 186.495C82.0177 186.4 82.1572 186.306 82.2966 186.236C82.622 186.071 82.9939 185.977 83.3891 185.977H83.5053V188.351H80.8555C80.8788 188.163 80.902 187.975 80.9485 187.787C80.995 187.646 81.0415 187.552 81.1112 187.435Z" fill="#6596C9"/>
<path d="M216.876 233.153H224.732C225.081 233.153 225.36 232.871 225.36 232.519V188.54C225.36 188.281 225.337 188.022 225.29 187.787C225.197 187.294 224.988 186.824 224.732 186.424C224.058 185.39 222.873 184.685 221.548 184.685H220.037C219.968 184.685 219.898 184.685 219.828 184.685C219.386 184.708 218.945 184.802 218.55 184.967C217.829 185.272 217.202 185.813 216.783 186.471C216.551 186.847 216.365 187.294 216.272 187.764C216.225 187.999 216.202 188.257 216.202 188.516V232.495C216.225 232.871 216.504 233.153 216.876 233.153ZM217.504 193.593H220.177V196.296H217.504V193.593ZM217.504 197.566H220.177V200.269H217.504V197.566ZM217.504 201.538H220.177V204.241H217.504V201.538ZM217.504 205.534H220.177V208.237H217.504V205.534ZM217.504 209.507H220.177V212.21H217.504V209.507ZM217.504 213.479H220.177V216.182H217.504V213.479ZM217.504 217.452H220.177V220.155H217.504V217.452ZM217.504 221.448H220.177V224.151H217.504V221.448ZM217.504 225.42H220.177V228.123H217.504V225.42ZM224.105 224.127H221.432V221.424H224.105V224.127ZM224.105 220.155H221.432V217.452H224.105V220.155ZM224.105 216.182H221.432V213.479H224.105V216.182ZM224.105 212.21H221.432V209.507H224.105V212.21ZM224.105 208.237H221.432V205.534H224.105V208.237ZM224.105 204.241H221.432V201.538H224.105V204.241ZM224.105 200.269H221.432V197.566H224.105V200.269ZM224.105 196.296H221.432V193.593H224.105V196.296ZM224.105 192.324H221.432V189.621H224.105V192.324ZM224.105 228.123H221.432V225.42H224.105V228.123ZM220.177 189.621V192.324H217.504V189.621H220.177ZM217.504 229.393H220.177V231.884H217.504V229.393ZM224.105 231.884H221.432V229.393H224.105V231.884ZM223.082 186.495C223.501 186.824 223.826 187.27 223.989 187.787C224.035 187.975 224.082 188.163 224.082 188.351H221.432V185.977H221.548C222.129 185.954 222.664 186.165 223.082 186.495ZM218.503 186.495C218.526 186.471 218.55 186.471 218.573 186.448C218.945 186.189 219.363 186.024 219.851 185.977C219.921 185.977 219.991 185.977 220.061 185.977H220.177V188.351H217.527C217.55 188.163 217.574 187.975 217.62 187.787C217.783 187.247 218.085 186.8 218.503 186.495Z" fill="#6596C9"/>
</g>
<defs>
<clipPath id="clip0_313_3724">
<rect width="275" height="208" fill="white"/>
</clipPath>
</defs>
</svg>
