<svg width="74" height="64" viewBox="0 0 74 64" fill="none" xmlns="http://www.w3.org/2000/svg">
<path fill-rule="evenodd" clip-rule="evenodd" d="M25.7006 28.2064C27.6449 27.3371 29.4503 25.2298 30.5536 23.4135C29.921 22.9361 29.1571 22.4976 28.4936 22.1056L27.9882 21.8107C27.3671 21.4459 26.7267 21.085 26.1326 20.6813C25.7044 20.3942 25.7276 19.7538 26.1712 19.4977C27.5214 18.6361 28.9642 17.8871 30.2103 16.8781C31.8229 15.5159 32.7217 14.0139 33.8829 12.2443C29.4002 11.2081 25.8896 11.4487 22.9615 15.512C22.8149 15.7138 22.6606 15.9039 22.4562 16.0514C21.5727 16.6801 20.5041 15.7914 20.5427 15.7604C20.2109 15.5818 19.748 15.1627 19.2156 15.0152C18.745 14.8833 18.2435 14.7436 17.7034 15.3723C17.6571 15.4344 17.7072 15.4926 17.5606 15.5741C17.3909 15.6711 17.0205 15.7953 16.8932 15.8651C16.8855 15.9777 17.3639 16.0747 17.7188 16.2144C18.2936 16.4434 18.4942 17.3942 18.6138 17.6581C18.7951 18.0617 18.9224 18.4343 18.7411 18.7254L18.6871 18.803C18.2242 19.3618 17.6339 19.6607 17.1208 20.1341C16.5615 20.6464 15.8092 21.1238 15.3848 21.7525C14.2468 24.1664 14.2545 27.6592 14.5053 30.2866V30.306L14.5361 30.6902C15.4851 30.0887 16.4033 29.4367 17.2674 28.7187C18.2087 27.9348 19.0266 27.1198 19.7287 26.2077L19.7557 26.1728L19.7634 26.1612L19.8097 26.103L19.8251 26.0836L19.883 26.0059L19.8907 25.9982L19.9177 25.9633L19.9447 25.9283L19.9486 25.9244L19.9949 25.8585L19.9987 25.8507L20.045 25.7886L20.0566 25.7731L20.0682 25.7537L20.0952 25.7188L20.1145 25.6916L20.1222 25.6799L20.1723 25.6062L20.2225 25.5325L20.2302 25.5247L20.2726 25.4587L20.2842 25.4432L20.3228 25.385L20.3382 25.3617L20.3459 25.3501L20.3691 25.3113L20.3922 25.2725L20.4154 25.2336L20.4385 25.1948L20.4424 25.191L20.4463 25.1638L20.4694 25.125L20.4771 25.1095L20.5774 24.9465L20.5813 24.9387L20.5851 24.9348L20.6314 24.8572L20.6353 24.8533L20.7202 24.702L20.7317 24.6787L20.7394 24.6631L20.778 24.5894L20.7819 24.5816L20.8282 24.5002L20.8706 24.4225L20.8783 24.4109L20.9246 24.3216L20.9323 24.3022L20.9516 24.2634L20.9671 24.2324L20.9709 24.2246L21.0133 24.1431L21.0558 24.0616L21.0635 24.05L21.1098 23.9568L21.1175 23.9374L21.1985 23.7705C21.4879 23.1496 21.754 22.517 22.0511 21.9038C22.1668 21.6632 22.1938 21.3139 22.487 21.2324C22.5487 21.2169 22.6182 21.213 22.6799 21.2285L22.7609 21.2518H22.8419C22.9075 21.248 22.9731 21.2635 23.031 21.2906C23.3049 21.4265 23.2663 21.7758 23.3319 22.0319C23.5093 22.6917 23.6521 23.3669 23.818 24.0267C24.061 24.9853 24.3928 25.8585 24.8133 26.689L24.8094 26.72C25.0756 27.2284 25.3726 27.7213 25.7006 28.2064ZM14.729 12.6129C16.2143 13.0515 16.7544 15.7836 16.2567 17.367C16.0175 16.7927 15.7706 16.2183 15.4929 15.6672C15.0994 14.7009 14.918 13.6453 14.729 12.6129ZM12.1674 13.23C13.4289 12.9001 14.4474 14.3555 15.2923 15.6129C14.837 15.2093 14.05 15.1511 13.5871 14.7552C12.7924 14.1343 12.777 14.0683 12.1674 13.23ZM14.675 15.7293C14.1581 15.8651 13.6103 16.0941 13.0779 15.9078C12.8001 15.7681 12.4799 15.6206 12.3179 15.3063C13.1165 15.1006 13.9305 15.4111 14.675 15.7293ZM55.5366 50.7778C55.363 50.6807 55.3206 50.2344 55.39 49.955C55.6292 49.7105 56.0883 49.3651 56.6824 49.0779C57.67 48.5967 57.1029 48.783 57.7086 48.1465C58.1561 47.6808 58.8582 47.4479 59.6568 47.1957C60.3627 46.4971 60.7022 45.4958 60.8758 44.5334C60.9916 44.025 60.6366 43.404 61.0456 42.9927C61.0147 42.6317 61.2153 42.2359 60.8411 42.069C60.6482 41.9099 60.9105 41.6848 61.034 41.6382C61.0571 41.1337 61.061 40.6292 61.0456 40.1208C61.0031 40.1247 60.5286 40.2954 60.274 40.3614C60.1737 40.3847 60.1274 40.3459 60.1236 40.3459C60.0001 39.8452 60.7099 39.9578 60.9877 39.7909C60.7254 39.3485 60.7524 39.5542 61.061 38.9526C61.3233 38.8673 61.25 39.2243 61.4969 39.2165C61.5934 39.4222 61.3812 39.5231 61.2693 39.6551C61.5934 39.6667 61.8827 39.4572 62.2106 39.527C62.2376 39.6628 62.2415 39.7443 62.1412 39.8026C61.7747 40.0199 61.9521 39.7133 61.2847 40.0587C61.3812 40.6331 61.331 41.2113 61.3812 41.7896C61.7593 41.9332 61.4391 42.232 61.3812 42.3057C61.2462 42.4881 61.2462 42.8762 61.331 43.0043C61.6667 43.5243 61.5008 43.6485 61.5278 43.9939C61.7014 45.0263 61.9521 46.6407 62.9552 47.2073C63.9505 47.5799 65.1695 48.1465 65.4396 49.2254C66.0723 49.5242 66.7126 49.9938 66.9055 50.5216L67.0097 50.6691L66.9634 50.7894L66.894 50.8515L66.9634 50.9097L67.0135 51.0339L66.9055 51.1542L66.8129 51.2124L66.8438 51.2862L66.9094 51.4375L66.6856 51.5035L66.6008 51.5268C66.5853 51.5617 66.566 51.5966 66.5506 51.6277V51.6393L66.539 51.7868L66.4387 51.779C66.4233 51.7946 66.4079 51.8101 66.3886 51.8217C66.3539 51.8877 66.3307 51.9265 66.3153 51.9614C66.3153 52.1749 66.3192 52.3845 66.3307 52.594L66.5198 58.233C66.1803 57.8721 65.5669 57.3326 65.671 56.8591C64.7645 57.2317 64.1549 57.1812 63.9775 57.449C63.9543 56.1606 63.9119 54.9536 63.9119 53.6651C63.9119 53.5022 63.7537 53.1878 63.5647 53.1917C63.3718 53.1956 63.2175 53.3314 63.2175 53.4944C63.2175 54.8023 63.3024 55.4232 63.3332 56.7388C63.3139 56.7388 63.3294 56.5875 63.3101 56.5836C63.1789 55.4892 62.3996 55.5396 61.1613 54.3327C60.9954 54.1735 60.9684 54.0183 60.9144 53.8476C60.8257 53.5487 60.6906 53.5604 60.4206 53.5953C57.3922 53.9911 55.7025 54.3055 52.8053 55.0545C52.516 52.7415 55.3476 51.9498 55.2396 52.3728C55.1432 52.7454 55.6254 53.0869 56.1076 53.6069C56.0999 52.8152 55.9957 52.0274 56.1076 51.2357C55.8607 50.0676 59.3096 49.2603 62.1797 49.2564C62.4691 49.2564 63.1673 49.2991 63.8309 49.4117C64.4944 49.5242 65.185 49.7726 65.4589 49.8269C63.148 48.2979 57.3845 48.4143 55.5366 50.7778ZM55.0737 51.4957C55.0737 51.5074 55.0737 51.5151 55.0737 51.5268C55.0776 51.5268 55.0814 51.5268 55.0853 51.5268L55.2087 51.8722L55.1663 51.8761C54.1324 52.0119 53.0137 52.365 52.2923 53.1762C51.7599 53.7777 51.6094 54.3831 51.513 54.3754C50.5833 52.9394 48.0911 52.008 46.1699 52.0041C45.2634 52.0041 45.3675 51.6316 44.9972 51.5617C44.9393 51.5501 44.8892 51.4724 44.8313 51.4841C44.5188 51.9226 44.3799 52.1594 43.8977 52.3301C42.9448 52.6678 41.3747 53.8437 40.6842 54.6625C40.283 54.2162 38.0609 52.9627 37.6558 52.7337C37.6288 51.1076 37.5787 49.4699 37.5787 47.8516C37.5787 47.642 37.3896 47.2151 37.162 47.1918C36.9344 47.1685 36.7454 47.3237 36.7454 47.5294C36.7454 49.0934 36.757 50.7312 36.7878 52.3107C35.8234 51.8838 34.693 51.651 33.285 51.4259C33.3081 47.902 33.3853 44.7197 33.4084 41.1958L33.0651 40.7379C31.3715 36.7056 42.8214 36.0226 45.788 36.4766C45.7996 36.465 45.815 36.4495 45.8305 36.4378C44.4841 36.0109 40.688 35.0213 34.9129 37.0199H34.9052C33.1306 37.9591 31.6685 38.6577 32.7912 40.7844C32.8837 40.9241 32.9918 41.0677 33.1152 41.2191L33.1345 41.5063C33.0226 41.3976 32.9107 41.2889 32.7989 41.1764L32.7642 41.2385L32.5481 41.2579L32.4555 40.8892L32.089 40.7999L32.1392 40.4351L31.7033 40.1363L31.8769 39.8996C31.8691 39.8685 31.7534 39.8841 31.7457 39.8491L31.5027 39.6357L31.5528 39.4882L31.4255 39.1544C31.3599 38.9837 31.4101 38.7547 31.5644 38.4986C31.8306 38.0639 32.417 37.5516 33.2888 37.1131C35.0595 36.2205 34.1954 36.5814 35.4453 35.4249C35.9507 34.9592 36.5564 34.606 37.1813 34.1791C38.4544 33.1313 39.2954 31.5983 39.6117 29.98C39.7969 29.328 39.9049 28.6178 39.6696 27.9813C39.3802 27.4574 40.0901 27.4846 40.0554 27.0654L40.0399 26.8947C39.9975 26.6075 40.1132 26.1845 39.7737 26.0758C39.5616 26.0253 39.4613 25.7731 39.5924 25.5946C39.7197 25.6178 39.9473 25.6567 39.9396 25.4587C39.8625 24.5933 39.8432 23.7201 39.7506 22.8585C39.2954 22.843 38.655 23.3863 38.3425 23.3863C38.2036 23.3863 38.1612 23.1574 38.1728 22.8857C38.7013 22.7033 39.2607 22.5752 39.7545 22.3036L39.7699 22.1561C39.2105 22.4433 39.3108 22.0397 39.334 21.8068C39.4188 21.7292 39.5346 21.671 39.6194 21.5934C40.0168 21.2247 39.4883 20.9336 40.0978 21.0733C40.0708 21.3489 40.1981 21.4692 40.472 21.4459C40.7961 22.0008 39.9782 21.7913 40.1171 22.2376C40.6456 22.0629 41.1625 21.799 41.7258 21.7796C41.7759 21.9582 41.7374 22.094 41.6293 22.1755C41.5676 22.2221 41.4827 22.2531 41.3863 22.2686V22.2803C41.3246 22.2958 41.2628 22.3191 41.2088 22.3462L40.8848 22.4355C40.6533 22.4976 40.4219 22.5713 40.2174 22.6994C40.1672 23.5066 40.3408 24.3022 40.31 25.1095C40.2984 25.2608 40.2675 25.7653 40.5684 25.7382C40.9427 25.7226 40.9889 26.6735 40.391 26.2931C40.3987 26.5143 40.4257 26.7356 40.4566 26.9568C40.4913 26.9878 40.5067 27.046 40.4836 27.1353L40.5106 27.306C40.7112 27.3681 40.8925 27.4923 40.9234 27.7213C40.8115 28.4587 40.8578 29.2426 41.124 29.9451C41.3863 30.7756 41.7875 31.5828 42.3199 32.2852C42.8638 33.0032 43.5351 33.628 44.3529 34.0045C46.6946 35.0834 46.224 35.7742 46.7178 36.0769C47.2231 35.0873 47.0379 33.9346 47.0264 32.8674C47.2154 32.588 47.335 32.2852 47.1961 31.936C47.2231 31.5052 46.6367 31.6876 46.8103 31.1559C46.9222 31.0511 46.9994 30.9619 47.146 30.9308C47.0997 30.2555 47.0379 29.5841 46.9762 28.9127L46.7602 28.8545C46.6136 28.9321 46.4554 28.971 46.2934 28.9981C45.9192 29.4444 45.41 29.1611 45.6646 28.7381C46.0812 28.6488 46.4901 28.5441 46.9068 28.4354C46.9569 28.2491 46.7679 28.2685 46.6445 28.2336C46.6252 28.0939 46.6097 27.9192 46.7563 27.8455C46.9222 27.7407 46.8991 27.5117 47.0071 27.3643C47.2656 27.3371 47.3929 27.6359 47.5973 27.7523C47.7208 27.9852 47.4777 28.1055 47.3466 28.2491C47.6938 28.4005 47.9831 28.0667 48.3342 28.0589L48.4113 28.0395C48.6351 28.0046 48.9784 27.8183 48.6891 28.4237L48.5193 28.447L48.4345 28.4587C48.23 28.6527 48.014 28.5829 47.4353 28.7265C47.2694 29.328 47.5202 29.98 47.5163 30.597C47.3813 31.1598 47.9677 31.0201 47.9214 31.4819C47.2656 31.8234 47.632 32.4521 48.0448 32.9566C47.8327 34.5362 48.4653 36.139 49.5146 37.3071C50.0702 37.6525 50.7183 37.8 51.2738 38.1454C51.8563 38.4132 52.3617 38.8207 52.8439 39.2321C53.9048 39.6667 55.5714 40.7573 55.6061 41.8944L55.6832 41.9526L55.6022 42.0224C55.5945 42.135 55.5675 42.2475 55.5251 42.3562L55.6832 42.4959L55.3013 42.7288C55.2859 42.7482 55.2705 42.7676 55.255 42.7831L55.39 43.0936L54.8654 43.2449L54.8384 43.6136L54.6223 43.5942C54.6069 43.5632 54.5915 43.536 54.5761 43.5088C54.6532 46.078 54.7342 48.651 54.8114 51.2202C54.8963 51.3094 54.9773 51.3987 55.0621 51.488C55.0699 51.4918 55.0699 51.4918 55.0737 51.4957ZM37 0C57.4347 0 74 16.6646 74 37.2218C74 45.752 71.1452 53.6108 66.3462 59.8862C66.2111 59.6883 66.0723 59.4826 65.9179 59.2653C65.6093 58.8229 65.2043 58.3455 65.0422 57.6664C63.962 58.6249 62.3611 58.4231 62.2608 61.621C62.2762 61.621 62.2878 61.621 62.3032 61.621C62.2916 61.9276 62.2916 62.1915 62.2916 62.3894L61.8673 62.2613C61.0301 59.1101 60.6868 59.013 59.352 57.092C59.0434 56.6496 58.6383 56.1722 58.4763 55.4931C58.3798 55.5784 58.1406 55.6444 58.0481 55.7337C55.8723 55.6561 55.8684 59.8397 55.934 60.6042L55.8105 60.5188L53.2644 59.6961C52.3501 57.4452 50.7183 56.471 48.7469 55.7414C48.23 55.5513 47.6938 55.4232 47.1383 55.3689C46.7332 55.3262 46.4979 55.3378 46.0889 55.3727C45.8305 55.396 45.5951 55.3611 45.2557 54.9264C45.1978 54.8527 45.1091 54.7906 45.0396 54.8023C44.9702 54.8217 44.893 54.9109 44.8506 55.0079C44.5921 55.559 44.3722 55.6871 44.1176 55.7686C43.7164 55.8928 43.4888 55.9782 43.103 56.1761C41.1548 57.1812 39.7622 58.6948 40.0129 61.0738L38.2191 61.3377C37.8178 59.0286 35.4029 56.9794 33.1962 56.1839C32.6407 55.9821 32.0582 55.8501 31.4602 55.7919C31.0204 55.7492 30.7697 55.7608 30.3299 55.7958C30.0521 55.8191 29.7975 55.7841 29.4272 55.3262C29.3616 55.2486 29.269 55.1865 29.1918 55.1981C29.1147 55.2175 29.0375 55.3145 28.9912 55.4116C28.7212 55.9937 28.4859 56.1256 28.212 56.211C27.7838 56.343 27.5369 56.4284 27.1241 56.6379C26.5608 56.9251 26.0246 57.2744 25.527 57.6819C23.7447 59.1372 22.4214 61.3028 21.8273 63.7594L20.1955 64C19.7518 61.8539 17.1556 61.8694 15.2691 60.938C14.7637 60.7478 14.8293 60.2666 14.5631 60.5227C14.5207 60.6508 14.4165 60.9457 14.2121 61.0699C12.9544 61.85 11.8087 62.6145 11.2493 63.7555C11.2223 63.7283 11.23 63.7594 11.1143 63.8021C4.25513 57.0532 0 47.6381 0 37.2218C0 16.6646 16.5653 0 37 0ZM60.5595 54.193C60.5903 54.0688 58.6074 54.2007 59.0395 55.2369C59.3597 56.0053 60.7794 57.2666 60.9414 58.0855L62.6504 57.5926C62.3109 55.6677 60.3512 54.9847 60.5595 54.193ZM13.3788 48.4492L13.3595 48.8257L13.4868 48.9731C13.4907 48.9964 13.4907 49.0158 13.4945 49.0352L13.3556 49.3341L13.6527 49.4699L13.6257 49.7416L13.8842 49.792L13.9189 49.8308L13.9382 50.0753L14.1311 50.0287C14.3471 50.2034 14.513 50.25 14.4165 50.118C11.8318 46.5786 22.0897 45.6627 25.3881 47.8205C23.6945 47.5333 22.4021 47.3393 21.0789 47.3043C19.775 47.2694 18.4441 47.3897 16.6656 47.8399C14.9605 48.2746 14.0038 49.1284 15.0569 50.1102L15.0955 50.3974L15.0916 59.8862C15.1341 60.0997 15.2074 60.3015 15.5199 60.449C16.3531 60.8332 17.9696 61.0272 19.1385 61.361C20.9285 61.8771 21.2217 62.3428 21.727 62.8512C22.7416 59.7931 24.4583 57.6004 27.3363 56.1722C27.9921 55.8462 28.5785 55.5163 28.9257 54.9381C29.0761 54.6858 29.3076 54.6897 29.5005 54.8527C30.0097 55.2757 30.5344 55.299 30.816 55.2912C34.0681 55.1632 38.5122 57.2433 39.1758 59.4632C39.8548 58.3028 40.7228 57.2899 41.7296 56.4943C42.5745 55.8307 43.238 55.6755 44.2141 55.2718C44.3992 55.0273 44.866 54.1852 45.2016 54.2356C45.4447 53.9252 45.788 54.6781 46.5403 54.6237C48.0603 54.5384 49.7847 55.105 50.9536 55.625C50.51 53.6147 48.9283 53.1296 47.2501 52.5901C46.6715 52.4039 46.1044 52.3068 45.6144 52.3379C45.3058 52.3689 45.1476 51.9149 44.8969 52.0352C44.7966 52.1671 44.6808 52.3301 44.5227 52.4271C42.8638 52.8075 41.0044 54.7712 40.4141 56.308C40.3331 56.5215 40.2753 56.5642 40.2444 56.7582C40.7073 56.8902 37.8719 52.563 31.8691 52.237C31.2943 52.2059 31.0436 51.616 30.7967 51.7208C30.4881 51.8489 29.9171 52.6755 29.7396 52.7182C27.0315 53.8475 25.6504 54.3404 23.9684 56.9988C23.4476 57.6043 22.1938 60.8293 22.1745 60.612C21.9585 58.4658 17.9078 57.5228 16.4534 58.3843C19.1578 56.9251 22.5333 57.9497 22.7725 58.004C23.5286 56.1295 24.767 54.3831 26.449 53.2227C26.4451 53.2188 26.3602 50.5022 26.3795 50.1374C26.4065 50.118 26.4297 50.1025 26.4528 50.0831L26.6303 50.0986L26.6418 49.9278C26.6997 49.8774 26.7537 49.8231 26.8 49.7687L27.0161 49.6639C26.9929 49.6135 26.9466 49.4117 26.962 49.369L27.1356 49.2293C27.1164 49.1905 27.0315 48.9499 27.0315 48.946L27.1858 48.8179L27.0585 48.6316C26.8347 48.0223 26.094 47.479 25.3649 47.1336C25.0524 45.8878 23.8527 45.2358 22.7031 44.805C21.5457 44.1492 21.2564 42.2825 21.0558 41.091C21.0249 40.6913 21.2139 40.5438 20.8282 39.9462C20.7317 39.7948 20.7317 39.3485 20.8899 39.1389C20.9555 39.0497 21.322 38.7043 20.8899 38.5413C20.832 37.8737 20.8899 37.2024 20.778 36.5387C21.5457 36.1429 21.3413 36.4921 21.7656 36.2438C21.8813 36.1778 21.8736 36.0847 21.8428 35.9255C21.4647 35.844 21.1291 36.0885 20.7549 36.0769C20.8822 35.9255 21.1291 35.8091 21.0172 35.5724C20.7317 35.584 20.8127 35.1688 20.5118 35.2697C20.1531 35.9643 20.1222 35.7276 20.427 36.236C20.1029 36.4262 19.2851 36.2981 19.4278 36.8764C19.4317 36.8725 19.4895 36.9229 19.6053 36.8919C19.9023 36.8181 20.4501 36.6202 20.4964 36.6163C20.5157 37.1985 20.508 37.7845 20.481 38.3666C20.3382 38.421 20.0373 38.681 20.2572 38.8634C20.6893 39.0535 20.4578 39.5115 20.4925 39.9267C20.0142 40.3963 20.427 41.1182 20.2958 41.7042C20.0952 42.8141 19.7017 43.9706 18.8877 44.7779C18.0544 45.0457 17.2211 45.3522 16.6425 45.8335C15.5623 46.7339 16.3724 46.3535 14.675 47.1452C13.6797 47.6032 13.1473 48.0145 13.3788 48.4492ZM45.7147 45.0534C45.3367 45.4415 45.4755 46.0314 45.4987 46.5204L45.5604 50.7816L46.44 50.7079L46.3628 45.7792C46.467 45.4027 46.2355 44.7856 45.7147 45.0534ZM17.2674 51.5345C17.0823 51.5539 16.928 51.9459 16.928 52.1361C16.928 53.7466 16.8817 55.3805 16.8624 56.995L17.5298 56.7893C17.5606 55.2175 17.6069 53.4168 17.6069 51.845C17.6069 51.6548 17.4565 51.5151 17.2674 51.5345ZM22.5796 51.2939C22.3559 51.2978 22.1707 51.4569 22.1707 51.6471C22.1707 53.2188 22.2285 55.0118 22.2633 56.5797L23.0657 56.6961C23.0425 55.0856 22.9847 53.4595 22.9847 51.8489C22.9885 51.6626 22.8034 51.29 22.5796 51.2939ZM41.911 43.9784C41.8685 43.9124 41.8299 43.8465 41.7914 43.7805L41.8184 43.7378C41.7142 43.567 41.6255 43.3885 41.5483 43.2022C40.8115 39.7637 51.2159 38.9294 53.9665 40.7417C54.0514 40.7883 54.1324 40.8465 54.2134 40.9125C52.516 38.9061 47.5202 38.9604 45.2518 39.43C43.5621 39.7793 41.421 40.668 40.5684 41.8478C40.4797 41.9797 40.8153 42.069 40.7691 42.201L40.5723 42.4687L40.8308 42.6162L40.6147 42.8918L41.0159 43.1363C41.0237 43.1557 40.9349 43.1751 40.9388 43.1983L40.9041 43.4933L41.1973 43.5787C41.2783 43.7262 41.2706 43.8542 41.3593 43.959L41.4596 44.0133L41.4982 44.0095C41.5329 44.0483 41.5715 44.0871 41.6023 44.1181C41.8685 44.3471 42.1077 44.3083 41.911 43.9784ZM51.023 50.6846L51.8255 50.8166C51.8023 48.9654 51.7444 47.0987 51.7444 45.2513C51.7444 45.034 51.5631 44.6071 51.3355 44.6149C51.1118 44.6226 50.9266 44.805 50.9266 45.0224C50.9305 46.8231 50.9883 48.8839 51.023 50.6846Z" fill="#0C2E61"/>
</svg>
