<svg width="345" height="51" viewBox="0 0 345 51" fill="none" xmlns="http://www.w3.org/2000/svg">
<path fill-rule="evenodd" clip-rule="evenodd" d="M32.6154 22.6639C32.8569 24.7527 33.0666 26.8352 33.3018 28.9303L28.7005 30.5415C28.8467 28.7265 28.6561 26.8352 29.2725 25.0966C30.2004 24.0586 31.4969 23.4472 32.6154 22.6639ZM42.1102 42.2209C38.4369 32.8914 38.0492 22.7276 38.297 12.825C35.8884 12.825 33.4861 12.825 31.0774 12.8441C31.5477 15.3404 32.0371 17.8241 32.4311 20.3204C29.406 21.8615 25.3767 22.371 23.5464 25.5424C23.3367 28.5419 25.5165 30.0893 23.9404 33.6683C22.6757 36.5468 22.6312 39.2151 21.6271 42.1636C24.0993 42.2782 26.0249 42.2782 28.5035 42.2782C28.726 39.3679 27.582 36.6041 28.9675 34.1268C29.9462 32.5411 31.9672 32.3565 33.5751 31.7833C33.8356 35.2604 34.0962 38.7502 34.2487 42.2336C36.8735 42.2719 39.4918 42.2655 42.1102 42.2209ZM44.3282 44.7364C45.4404 35.8144 39.3584 24.5872 42.7394 15.8244C44.5316 11.8379 49.476 12.7358 53.0032 12.1436C53.0032 14.2833 52.9969 16.4294 53.0032 18.5628L49.0248 17.9705C46.5716 20.4032 47.5631 24.1032 47.5885 27.1663C48.0143 30.4842 47.7728 36.5277 49.2472 39.5908C50.728 39.4125 52.1707 39.0622 53.6451 38.782C52.4058 42.8577 48.2939 44.6918 44.3282 44.7364ZM89.8512 27.9241C89.9783 31.5222 89.8703 35.1139 89.6288 38.7056L85.2309 38.6801C85.3517 36.0755 84.9894 33.3244 85.9745 30.8472C87.0867 29.6436 88.5293 28.8539 89.8512 27.9241ZM89.9529 25.0138C86.9278 26.7333 83.0765 27.2809 80.6996 29.962C79.6001 32.694 80.3564 35.7762 80.2102 38.661C79.3777 38.6992 77.7317 38.7566 76.9055 38.7884C77.8524 41.6732 78.9582 44.5198 80.2865 47.2518C80.7886 48.0542 81.0364 49.4107 82.2503 49.2451C82.7206 46.7551 82.943 44.2333 83.2608 41.7178C86.5465 41.7178 89.8322 41.6987 93.1179 41.756C93.4992 44.4243 93.7852 47.1117 94.2555 49.7864C96.7722 46.6214 97.9479 42.6603 99.4032 38.9476C98.3101 38.8075 97.217 38.6674 96.1303 38.5464C95.4884 33.7384 95.0944 28.8921 95.2215 24.0331C95.3041 20.0147 94.9545 15.6079 97.414 12.1436C91.7705 12.22 88.523 12.1627 82.8795 12.1818C83.0638 14.054 83.2608 15.9327 83.4642 17.7986C84.195 17.0471 84.9449 16.2893 85.6822 15.5378C87.6968 15.3213 87.3155 15.1175 89.3428 14.9392C89.7051 18.2889 89.9338 21.645 89.9529 25.0138ZM100.554 41.9598C101.602 36.1519 102.441 30.2868 102.263 24.377C102.104 20.3523 102.282 16.0409 100.16 12.4429C102.822 12.5448 105.492 12.5384 108.155 12.5702C107.735 15.8563 107.309 19.1295 107.036 22.4219C109.248 21.4922 109.858 20.7917 112.025 19.7919C111.802 17.4547 111.516 15.1303 111.237 12.7995C114.02 12.7995 116.798 12.8122 119.575 12.774C118.806 14.1114 117.808 15.4105 117.675 17.0025C116.442 25.3959 117.249 33.9294 118.857 42.1954C116.404 42.2527 113.951 42.2527 111.491 42.2018C111.993 35.8972 112.667 29.5799 112.444 23.2498C110.055 24.0013 109.235 24.4407 106.826 25.1285C106.953 30.758 107.354 36.3685 107.945 41.9598C105.492 41.9789 103.019 41.9916 100.554 41.9598ZM120.84 16.3721C118.158 24.9756 123.458 33.5346 122.257 42.2464C126.331 42.361 130.15 40.2722 131.771 36.4512C130.112 36.6359 128.479 37.1072 126.807 36.9989C126.242 34.2606 126.057 31.484 125.829 28.7074L129.82 27.8923V24.1477C128.396 24.6126 126.979 25.0966 125.562 25.5679C125.784 22.9824 125.32 19.9702 127.386 18.0024C128.739 18.1679 130.087 18.3463 131.44 18.5246L131.447 12.1563C127.754 12.704 122.352 11.9143 120.84 16.3721ZM82.0723 25.6188C80.6233 27.6248 79.2633 30.153 76.6258 30.688C71.4081 30.0384 69.7494 22.683 72.6665 18.8366C74.9036 15.3659 79.473 17.3655 82.8032 16.7669C81.9198 18.3526 81.2207 20.1103 79.8416 21.3457C78.3418 20.9063 76.9309 20.2249 75.5137 19.6008C75.4183 20.4287 75.3357 21.2502 75.2531 22.0781C77.1152 22.2054 78.9837 22.3264 80.8458 22.5493C79.2824 23.5109 77.6554 24.3579 76.0412 25.224C77.9287 26.4212 79.9878 26.3703 82.0723 25.6188ZM70.7091 41.5777C69.2219 31.8661 67.8301 21.8997 69.832 12.1563C67.5123 12.1499 65.1927 12.1499 62.8793 12.1499L63.4704 17.6139C60.8965 18.8493 58.1574 20.8171 55.8059 22.4602C53.6006 24.2879 53.143 33.4964 52.1452 36.0182C54.5539 36.0819 57.6616 36.0819 60.0639 36.0946C60.0576 35.5406 59.0471 32.8595 59.0916 31.3566C59.1678 28.631 59.314 26.2556 59.4538 25.2622C59.9877 23.288 62.0468 21.4731 63.5784 20.4287C64.1186 27.4784 63.9852 34.5535 63.1081 41.5713C65.6375 41.5904 68.1733 41.5968 70.7091 41.5777ZM56.1046 14.6208C56.1046 13.4682 57.0388 12.532 58.1891 12.532C59.3394 12.532 60.2737 13.4682 60.2737 14.6208C60.2737 15.7735 59.3394 16.7096 58.1891 16.7096C57.0388 16.7096 56.1046 15.7735 56.1046 14.6208ZM14.2295 25.3705C14.3058 30.9809 13.702 36.5659 13.2317 42.1381C15.7039 42.1381 18.1634 42.1381 20.6357 42.1126C19.5235 36.3557 18.7227 30.5033 18.8498 24.6254C19.0659 20.6388 18.8943 16.4103 20.9788 12.8313C18.3033 12.8886 15.6213 12.8886 12.9521 12.9141C13.416 16.1683 13.8291 19.4289 14.0706 22.7085C11.8463 21.7979 9.67276 20.7853 7.51196 19.7536C7.79159 17.4802 8.06487 15.194 8.30002 12.9077C5.52275 12.8886 2.7582 12.9077 0 12.825C0.813478 14.1941 1.82397 15.5506 1.93201 17.2127C2.98699 25.5106 2.4023 33.9613 0.680012 42.1317C3.17129 42.1509 5.65621 42.1381 8.1602 42.0935C7.4929 35.8654 6.94634 29.6054 7.22597 23.3262C9.54566 24.0331 11.8844 24.7082 14.2295 25.3705Z" fill="#0C2E61"/>
<path fill-rule="evenodd" clip-rule="evenodd" d="M155.029 16.715C155.282 14.5714 155.682 12.4597 156.303 10.4692L159.1 10.7882C159.322 12.6128 159.747 14.8075 158.491 16.0898C157.35 16.4152 156.196 16.6321 155.029 16.715ZM151.553 8.84876C148.674 11.4581 149.993 16.5173 150.227 20.4217C151.293 28.7346 150.671 37.0346 150.005 45.2135C152.492 45.2263 154.965 45.2263 157.458 45.2135C156.272 36.9389 155.136 28.5814 155.257 20.2431C157.68 20.2813 160.394 20.7024 162.386 18.7502C165.271 16.1536 165.614 11.2093 166.083 6.99863C161.288 7.98749 155.745 5.07831 151.553 8.84876ZM180.905 40.2756C184.869 40.2309 188.966 38.3872 190.203 34.3105C188.732 34.5912 187.292 34.9421 185.814 35.1207C184.343 32.052 184.584 28.4411 184.159 25.1172C184.133 22.0422 183.144 18.3355 185.592 15.8984L189.556 16.4917C189.543 14.3545 189.556 12.2109 189.556 10.0609C186.036 10.6542 181.108 9.75469 179.313 13.7484C175.946 22.5334 182.015 31.3439 180.905 40.2756ZM197.218 14.7947C198.29 23.1714 197.649 31.6948 195.968 39.9438C198.454 39.963 200.934 39.9566 203.421 39.9056C203.122 37.0538 202.812 34.202 202.678 31.3311C204.79 32.0265 207.6 32.5752 208.044 35.2355C208.729 40.4925 208.31 45.9536 206.642 51C209.357 49.8453 213.226 49.4051 214.545 46.3747C214.551 41.8195 213.961 37.2069 213.207 32.7092C210.816 29.4044 206.097 29.3853 202.482 28.2624C202.254 24.9705 202.501 21.6913 202.602 18.4121C205.976 18.8778 209.852 18.2972 212.002 15.3561C215.649 10.9541 210.625 4.17238 215.693 0.401927C212.674 0.586941 209.052 0.497623 206.966 3.08782C205.989 6.64774 207.816 10.3034 207.315 13.9271C206.871 16.0707 204.575 15.6113 202.977 15.6624C203.141 13.9334 203.357 12.2045 203.541 10.4756C200.782 10.4565 198.03 10.4756 195.277 10.3927C196.101 11.7771 197.104 13.1296 197.218 14.7947ZM210.124 18.68C212.68 17.1297 217.317 18.6864 217.215 22.1442C217.133 24.5941 216.663 27.3629 214.729 29.0663C212.243 30.7569 208.215 28.9642 207.683 25.9976C207.131 23.3947 207.905 20.3069 210.124 18.68ZM211.367 21.0916C213.752 21.2702 214.342 24.4729 213.657 26.3868C211.367 25.6404 210.473 23.3309 210.486 21.0916H211.367ZM224.223 13.0849C226.57 13.1679 228.701 13.9462 229.989 16.0452C230.407 14.2078 230.813 12.3576 231.219 10.5075C226.221 10.3863 221.223 10.5139 216.232 10.4054C216.961 11.809 217.97 13.1551 218.097 14.8011C219.124 23.1714 218.496 31.6693 216.98 39.9375C219.435 39.9502 221.902 39.9566 224.376 39.9119C223.373 31.0185 222.511 21.9592 224.223 13.0849ZM237.301 10.2715C240.555 9.659 243.84 10.6351 247.125 10.2906C244.779 17.7996 247.982 25.6467 246.453 33.2004C244.931 38.7444 238.614 40.2118 233.642 40.5372C234.65 32.4603 230.629 24.7408 231.631 16.6704C231.993 13.64 234.257 10.8456 237.301 10.2715ZM241.462 12.6128C239.578 13.3465 237.771 14.6033 237.758 16.8235C237.13 23.4648 238.31 30.1253 238.386 36.7795C240.365 35.7651 241.525 33.7873 241.424 31.5289C241.405 25.2257 240.897 18.9097 241.462 12.6128ZM196.025 27.1906C194.732 28.977 193.52 31.2227 191.167 31.6948C186.512 31.1206 185.034 24.5813 187.641 21.1617C189.639 18.0803 193.71 19.8539 196.685 19.3244C195.898 20.7343 195.271 22.2973 194.047 23.3947C192.708 23.0055 191.453 22.3994 190.184 21.8444C190.102 22.5781 190.026 23.3117 189.956 24.0454L190.66 26.8398C192.328 27.9052 194.167 27.8541 196.025 27.1906ZM166.73 35.2228C168.138 37.0857 169.99 39.0251 169.73 41.5898C168.119 41.2708 166.47 40.4606 165.677 38.9486C164.897 37.6599 166.261 36.3903 166.73 35.2228ZM172.502 35.5609C173.757 39.2038 171.449 43.4208 168.037 44.9966C165.024 45.9791 162.557 42.9104 162.056 40.2437C161.517 37.5004 163.787 35.4588 165.259 33.4365C162.576 30.1891 160.597 27.6628 160.204 22.9927L166.622 21.4935C165.785 23.937 166.616 28.0519 168.068 30.3167C169.286 28.3645 170.84 26.3677 170.764 23.9625C170.739 20.7279 169.419 14.0993 168.868 10.935L176.44 11.0753L176.187 14.7692C175.946 18.2462 175.768 21.7614 174.937 25.1746C174.347 28.1412 171.557 29.8319 169.692 31.9755C170.631 33.1557 171.791 34.1956 172.502 35.5609ZM282.465 25.1045C282.541 23.8285 282.604 22.5589 282.662 21.2893C281.241 21.7551 279.827 22.2399 278.412 22.7184C278.514 20.1346 277.943 17.1361 280.01 15.1456L284.203 15.7517C284.222 13.6145 284.222 11.4772 284.19 9.33363C280.613 9.88867 275.59 8.94446 273.744 13.002C270.427 21.7232 276.3 30.6166 274.899 39.4845C278.964 39.4909 282.953 37.5323 284.399 33.513C282.814 33.8001 281.247 34.202 279.643 34.3041C278.767 31.5991 278.767 28.7027 278.59 25.8892L282.465 25.1045ZM308.5 25.0279C306.642 25.6978 304.809 25.7424 303.122 24.677C304.562 23.9051 306.014 23.1522 307.409 22.2973C305.748 22.0996 304.086 21.9911 302.424 21.8763C302.5 21.1426 302.57 20.4089 302.653 19.6753C303.915 20.2303 305.177 20.8364 306.515 21.2255C307.745 20.1282 308.373 18.5716 309.153 17.1552C306.179 17.6848 302.107 15.9112 300.109 18.9926C297.503 22.4122 298.98 28.9515 303.636 29.5256C305.995 29.0599 307.206 26.8142 308.5 25.0279ZM314.525 17.0276C314.779 15.3434 315.179 13.691 315.8 12.1344L318.597 12.3832C318.819 13.8122 319.244 15.5348 317.988 16.5364C316.847 16.7916 315.692 16.9575 314.525 17.0276ZM311.05 10.8648C315.248 7.91093 320.785 10.1885 325.586 9.41656C325.117 12.7149 324.775 16.5874 321.889 18.6226C319.904 20.1537 317.183 19.822 314.76 19.7965C314.64 26.3294 315.775 32.875 316.961 39.3633C314.468 39.3697 311.995 39.3697 309.509 39.3633C310.175 32.9516 310.796 26.4506 309.731 19.9368C309.49 16.8745 308.17 12.9063 311.05 10.8648ZM292.733 32.3583C293.964 32.3583 295.257 32.0776 296.443 32.5369C297.033 33.6597 297.185 34.9548 297.458 36.1861C296.025 36.2691 294.598 36.3329 293.164 36.3839C293 35.0442 292.854 33.7108 292.733 32.3583ZM292.613 15.2796C293.443 13.1168 295.15 11.7771 297.509 11.8983C297.572 13.0722 297.617 14.2461 297.667 15.4263C295.999 16.2812 294.262 15.9176 292.613 15.2796ZM303.109 13.876C301.365 17.7868 296.513 19.3307 292.568 18.227C292.321 22.1123 292.283 26.0104 292.568 29.8957C295.359 29.0982 298.682 27.6691 301.371 29.532C303.699 32.2243 303.154 36.1032 303.978 39.3633C298.004 39.3378 292.016 39.4271 286.036 39.3059C287.082 33.4556 287.983 27.5288 287.64 21.5701C287.52 18.8586 287.26 16.1153 287.621 13.4103C288.782 9.68451 293.183 9.30173 296.431 9.01464C296.126 7.08156 295.555 5.12935 295.885 3.16438C298.054 0.414688 301.815 0.127596 305.037 0L302.913 2.46898C302.805 6.26495 303.915 10.112 303.109 13.876ZM268.334 6.66688C269.311 6.59032 270.37 6.19477 271.321 6.57118C272.216 7.61108 271.023 8.7084 270.827 9.78021C270.028 13.0849 270.522 16.479 271.157 19.7646C268.727 19.771 266.311 19.873 263.882 19.8348C264.218 16.5619 264.573 13.2253 263.717 9.99074C261.389 10.3225 260.457 12.3959 260.489 14.2716C260.381 21.0597 261.599 27.7903 262.055 34.5593C262.239 37.0729 261.738 39.5738 261.085 42.0109C264.085 40.2501 264.916 36.9581 264.998 33.9724C265.131 31.2163 264.573 28.4921 264.326 25.7552C266.622 25.7361 268.918 25.6276 271.214 25.5766C270.611 30.7442 271.347 36.6965 267.294 40.9455C264.922 43.5931 260.597 43.1848 257.819 45.2965C256.645 46.0429 256.043 47.2487 255.256 48.2758C254.14 47.6634 252.783 46.9552 252.783 45.6282C253.614 43.81 255.979 43.3825 257.584 42.2852C258.497 40.0013 257.958 37.5004 257.343 35.2037C255.903 30.3678 253.899 25.6212 253.423 20.6067C253.106 17.4934 253.024 13.9526 255.504 11.4581C258.7 8.19802 263.78 7.39417 268.334 6.66688ZM331.123 19.7773C331.364 21.8699 331.574 23.9561 331.808 26.055L327.216 27.6691C327.362 25.8509 327.172 23.9561 327.787 22.2144C328.713 21.1809 330.007 20.5684 331.123 19.7773ZM340.599 39.3697C336.933 30.0233 336.546 19.8411 336.793 9.92056C334.39 9.92056 331.992 9.92056 329.588 9.9397C330.058 12.4406 330.546 14.9287 330.939 17.4296C327.92 18.9735 323.899 19.4839 322.073 22.661C321.863 25.6659 324.039 27.2162 322.466 30.8016C321.204 33.6853 321.159 36.3584 320.157 39.3122C322.625 39.4271 324.546 39.4271 327.02 39.4271C327.242 36.5115 326.1 33.7427 327.483 31.2609C328.459 29.6724 330.476 29.4874 332.081 28.9132C332.341 32.3966 332.601 35.8927 332.753 39.3824C335.373 39.4271 337.986 39.4207 340.599 39.3697ZM141.354 26.3166C141.354 27.4714 142.287 28.4092 143.435 28.4092C144.583 28.4092 145.515 27.4714 145.515 26.3166C145.515 25.1619 144.583 24.224 143.435 24.224C142.28 24.2304 141.354 25.1619 141.354 26.3166ZM340.84 26.3166C340.84 27.4714 341.772 28.4092 342.92 28.4092C344.068 28.4092 345 27.4714 345 26.3166C345 25.1619 344.068 24.224 342.92 24.224C341.772 24.2304 340.84 25.1619 340.84 26.3166Z" fill="#0C2E61"/>
</svg>
