<svg width="125" height="25" viewBox="0 0 125 25" fill="none" xmlns="http://www.w3.org/2000/svg">
<path d="M17.1182 3.02152C15.2254 1.07616 12.7152 0 10.0817 0H9.99936C4.56761 0 0.0822992 4.4702 0 9.97516C0 10.1821 0 18.8328 0 22.5579V23.9652C0 24.255 0.123449 24.5447 0.329197 24.7103C0.534945 24.8758 0.781843 25 1.02874 25C1.31679 25 1.56369 24.8758 1.76943 24.7103L6.87199 19.6606C7.69498 19.8262 9.13521 20.1159 9.95821 20.1159H10.0405C15.4311 20.1159 19.9987 15.5215 20.0399 10.0993C20.0399 7.49172 19.0111 4.96689 17.1182 3.02152ZM10.0405 18.5844H9.95821C9.29981 18.5844 7.98303 18.3361 6.95428 18.0877C6.62509 18.005 6.25474 18.1291 6.00784 18.3775L1.52254 22.7649C1.52254 17.5497 1.52254 10.1821 1.52254 10.0166C1.60484 5.3394 5.3906 1.53146 9.99936 1.53146H10.0405C12.3037 1.57285 14.4435 2.48344 16.0484 4.09768C17.6532 5.71192 18.5173 7.86424 18.5173 10.0993C18.435 14.7351 14.567 18.5844 10.0405 18.5844Z" fill="#C2DBFF"/>
<path d="M12.1392 6.16848C11.9746 6.0857 11.7688 6.04431 11.5631 6.0857C11.3573 6.12709 11.1927 6.29265 11.1104 6.45821C11.0281 6.62378 10.987 6.87212 11.0281 7.03768C11.0693 7.24464 11.2339 7.4102 11.3985 7.49298C12.3449 7.98967 12.921 8.98305 12.921 10.0592C12.921 11.6734 11.6042 12.9979 9.99938 12.9979C8.39454 12.9979 7.07775 11.6734 7.07775 10.0592C7.07775 9.06583 7.57155 8.11384 8.43569 7.57576C8.80604 7.32742 8.88834 6.87212 8.68259 6.49961C8.55914 6.33404 8.39454 6.20987 8.18879 6.16848C7.98305 6.12709 7.7773 6.16848 7.6127 6.25126C6.29591 7.07908 5.51407 8.48636 5.51407 10.0592C5.51407 12.5427 7.5304 14.5708 9.99938 14.5708C12.4684 14.5708 14.4847 12.5427 14.4847 10.0592C14.4847 8.44497 13.5794 6.9549 12.1392 6.16848Z" fill="#C2DBFF"/>
<path d="M9.91855 5.04981C9.50706 5.04981 9.13671 5.38093 9.13671 5.83623V9.14749C9.13671 9.56139 9.46591 9.93391 9.91855 9.93391C10.3712 9.93391 10.7004 9.60279 10.7004 9.14749V5.83623C10.7004 5.42232 10.33 5.04981 9.91855 5.04981Z" fill="#C2DBFF"/>
<path d="M63.7691 15.6664C63.5222 15.6664 63.3576 15.7491 63.1519 15.9147C62.6169 16.4528 61.547 16.8667 60.6006 16.8667C58.2139 16.8667 56.9794 14.673 56.9794 12.4793C56.9794 10.4097 58.0905 8.21603 60.5594 8.21603C61.3824 8.21603 62.5346 8.50577 63.1107 9.08524C63.2753 9.2508 63.6045 9.37497 63.8103 9.37497C64.3041 9.37497 64.6744 8.96107 64.6744 8.46438C64.6744 8.17464 64.5509 7.88491 64.3041 7.67795C63.2753 6.72597 61.7116 6.35345 60.6417 6.35345C57.0206 6.35345 55.1688 9.49915 55.1688 12.5621C55.1688 15.5008 56.856 18.6465 60.5594 18.6465C61.9174 18.6465 63.3576 18.1498 64.2629 17.322C64.4687 17.115 64.5921 16.8667 64.5921 16.5356C64.6332 15.9975 64.2629 15.6664 63.7691 15.6664Z" fill="#C2DBFF"/>
<path fill-rule="evenodd" clip-rule="evenodd" d="M27.2264 6.60152H30.2714C32.3701 6.60152 33.9749 8.21576 33.9338 10.2025C33.9338 12.0237 32.6993 13.9277 30.3949 13.9277H28.0082V17.4459C28.0082 17.984 27.679 18.3151 27.1441 18.3151C26.6091 18.3151 26.2799 17.984 26.2799 17.4459V7.51212C26.2799 6.93265 26.6503 6.60152 27.2264 6.60152ZM30.436 12.1893C31.5882 12.1893 32.2055 11.0717 32.2055 10.2439C32.2055 9.33331 31.5882 8.38132 30.3949 8.33993H28.0494V12.1893H30.436Z" fill="#C2DBFF"/>
<path d="M37.8425 16.6182H42.2867C42.8216 16.6182 43.1508 16.9494 43.192 17.4461C43.192 17.9841 42.8628 18.3153 42.3278 18.3153H37.1841C36.4846 18.3153 36.1142 17.9014 36.1142 17.1563V7.4709C36.1142 6.93282 36.4434 6.60169 36.9784 6.60169C37.5133 6.60169 37.8425 6.93282 37.8425 7.4709V16.6182Z" fill="#C2DBFF"/>
<path d="M68.5413 16.6171H73.3558C74.2199 16.6171 74.3022 17.2379 74.3022 17.4863C74.3022 18.0243 73.973 18.3555 73.3558 18.3555H67.7594C66.9776 18.3555 66.813 18.0243 66.813 17.3621V7.63527C66.813 7.01441 67.1833 6.6419 67.7594 6.6419H73.2323C73.7673 6.6419 74.0965 6.97302 74.0965 7.5111C74.0965 8.04918 73.7673 8.38031 73.2323 8.38031H68.5413V11.4018H72.4916C73.0266 11.4018 73.3558 11.7743 73.3558 12.3124C73.3558 12.8091 73.0266 13.1402 72.4916 13.1402H68.5413V16.6171Z" fill="#C2DBFF"/>
<path d="M81.7484 12.0663C81.5015 11.9421 81.2547 11.818 81.0489 11.7352L80.5963 11.4869C79.5676 10.9488 78.6211 10.4521 78.6211 9.78985C78.6211 8.87925 79.4441 8.25839 80.2259 8.25839H80.2671C81.2958 8.25839 82.0365 8.6723 82.5303 9.04481L82.6126 9.0862C82.6491 9.10824 82.6856 9.13158 82.7224 9.15506C82.8927 9.26392 83.0679 9.37594 83.271 9.37594C83.7237 9.37594 84.1351 8.96203 84.1351 8.46534C84.1351 8.05144 83.8471 7.7617 83.6002 7.51336L83.5505 7.47951C83.2163 7.25029 82.0305 6.4372 80.514 6.4372C78.3331 6.4372 76.7694 7.84448 76.7694 9.87263C76.7694 11.611 78.4977 12.5216 80.1025 13.3081L80.8432 13.6806C81.9131 14.1359 82.5303 14.5084 82.5715 15.419C82.6126 16.6193 80.3494 17.5713 78.2096 16.2882C77.9627 16.164 77.7158 16.0398 77.5101 16.0398C76.9751 16.0398 76.6871 16.371 76.6871 16.8677C76.6871 17.116 76.7694 17.4885 77.2632 17.7783C78.0862 18.3163 79.0326 18.5647 80.0202 18.5647C82.8595 18.5647 84.4232 17.4057 84.4232 15.2948C84.382 13.3494 82.9829 12.6458 81.7484 12.0663Z" fill="#C2DBFF"/>
<path d="M86.9779 6.68544H94.3848C94.9609 6.68544 95.2901 7.01656 95.2901 7.55464C95.2901 8.09272 94.9197 8.42385 94.3848 8.42385H91.5455V17.4884C91.5455 18.0679 91.2163 18.4404 90.6813 18.4404C90.1052 18.4404 89.776 18.0679 89.776 17.4884V8.42385H86.9779C86.4018 8.42385 86.0726 8.09272 86.0726 7.55464C86.0726 7.01656 86.4018 6.68544 86.9779 6.68544Z" fill="#C2DBFF"/>
<path fill-rule="evenodd" clip-rule="evenodd" d="M104.59 17.1563L101.092 7.59502C100.886 7.01555 100.475 6.72581 99.9398 6.72581C99.4048 6.72581 98.9933 7.05694 98.7876 7.59502L95.4133 17.1977C95.3722 17.3218 95.331 17.446 95.331 17.6116C95.331 18.1083 95.6602 18.4394 96.1129 18.4394C96.3597 18.4394 96.8535 18.3566 97.1004 17.653L97.9646 15.2109H101.956L103.026 17.8599C103.149 18.2324 103.479 18.4394 103.849 18.4394C104.343 18.4394 104.672 18.1083 104.672 17.6116C104.672 17.4874 104.631 17.3218 104.59 17.1563ZM101.339 13.4725H98.4584L99.8986 9.49899L101.339 13.4725Z" fill="#C2DBFF"/>
<path fill-rule="evenodd" clip-rule="evenodd" d="M114.298 10.2864C114.298 11.4868 113.64 13.0182 112.158 13.5977L114.051 16.9089C114.175 17.1573 114.216 17.4056 114.216 17.6126C114.216 18.1093 113.928 18.4404 113.434 18.4404C112.981 18.4404 112.776 18.1507 112.652 17.9437L110.348 13.9702H108.373V17.4056C108.373 18.0265 108.044 18.399 107.509 18.399C107.262 18.399 106.644 18.3162 106.644 17.4056V8.00994C106.644 7.09935 106.974 6.68544 107.797 6.68544H110.595C112.981 6.68544 114.298 8.54802 114.298 10.2864ZM110.718 12.2318C112.035 12.2318 112.529 11.0729 112.529 10.3278C112.529 9.58279 112.035 8.42385 110.718 8.42385H108.373V12.2318H110.718Z" fill="#C2DBFF"/>
<path d="M124.054 6.68544H116.647C116.071 6.68544 115.741 7.01656 115.741 7.55464C115.741 8.09272 116.071 8.42385 116.647 8.42385H119.486V17.4884C119.486 18.0679 119.815 18.4404 120.391 18.4404C120.926 18.4404 121.255 18.0679 121.255 17.4884V8.42385H124.095C124.63 8.42385 125 8.09272 125 7.55464C124.959 7.01656 124.63 6.68544 124.054 6.68544Z" fill="#C2DBFF"/>
<path fill-rule="evenodd" clip-rule="evenodd" d="M50.436 7.55464L53.9338 17.1159C54.0161 17.2815 54.0161 17.447 54.0161 17.5712C54.0161 18.0679 53.6869 18.399 53.1931 18.399C52.8227 18.399 52.4935 18.1921 52.3701 17.8195L51.3002 15.1705H47.3087L46.4445 17.6126C46.1976 18.3162 45.7038 18.399 45.4569 18.399C45.0043 18.399 44.6751 18.0679 44.6751 17.5712C44.6751 17.4056 44.7162 17.2815 44.7574 17.1573L48.1317 7.55464C48.3374 7.01656 48.7489 6.68544 49.2838 6.68544C49.8188 6.68544 50.2303 6.97517 50.436 7.55464ZM47.8436 13.4321H50.7241L49.2838 9.45862L47.8436 13.4321Z" fill="#C2DBFF"/>
</svg>
